<svg width="290" height="71" viewBox="0 0 290 71" fill="none" xmlns="http://www.w3.org/2000/svg">
<path d="M22.7259 34.8045L33.6759 9.60449H40.2259V42.6045H34.5259V20.8545L25.0259 42.6045H20.4259L10.6759 20.8545V42.6045H4.92588V9.60449H11.4759L22.7259 34.8045ZM54.2677 42.6045H48.5177V9.60449H54.2677V42.6045ZM85.7685 16.7045C84.7018 15.9712 83.4185 15.3878 81.9185 14.9545C80.4518 14.4878 78.7685 14.2545 76.8685 14.2545C75.0685 14.2545 73.5185 14.5378 72.2185 15.1045C70.9518 15.6712 69.9185 16.4712 69.1185 17.5045C68.3185 18.5378 67.7185 19.7878 67.3185 21.2545C66.9518 22.6878 66.7685 24.2878 66.7685 26.0545C66.7685 30.0878 67.6185 33.1378 69.3185 35.2045C71.0518 37.2712 73.5351 38.3045 76.7685 38.3045C78.7685 38.3045 80.5851 38.0045 82.2185 37.4045C83.8851 36.8045 85.2518 36.0712 86.3185 35.2045L87.8185 40.1545C86.4851 40.9545 84.8685 41.6712 82.9685 42.3045C81.1018 42.9045 78.9851 43.2045 76.6185 43.2045C73.8851 43.2045 71.5185 42.7545 69.5185 41.8545C67.5185 40.9545 65.8518 39.7378 64.5185 38.2045C63.2185 36.6712 62.2518 34.9045 61.6185 32.9045C60.9851 30.8712 60.6685 28.7212 60.6685 26.4545C60.6685 24.0878 61.0185 21.8712 61.7185 19.8045C62.4185 17.7378 63.4518 15.9378 64.8185 14.4045C66.2185 12.8378 67.9351 11.6045 69.9685 10.7045C72.0351 9.80449 74.4351 9.35449 77.1685 9.35449C78.9685 9.35449 80.7685 9.55449 82.5685 9.95449C84.3685 10.3212 85.9185 10.8378 87.2185 11.5045L85.7685 16.7045ZM101.565 28.5045C101.198 28.5045 100.815 28.5045 100.415 28.5045C100.048 28.5045 99.6483 28.4878 99.2149 28.4545V42.6045H93.4649V9.60449C93.9983 9.57116 94.5983 9.53782 95.2649 9.50449C95.9649 9.47116 96.6649 9.45449 97.3649 9.45449C98.0649 9.42116 98.7149 9.40449 99.3149 9.40449C99.9483 9.37116 100.448 9.35449 100.815 9.35449C105.082 9.35449 108.332 10.1712 110.565 11.8045C112.798 13.4045 113.915 15.7545 113.915 18.8545C113.915 20.8212 113.432 22.5878 112.465 24.1545C111.498 25.7212 109.882 26.8878 107.615 27.6545L119.715 42.6045H113.065L101.565 28.5045ZM101.315 14.1545C101.048 14.1545 100.732 14.1545 100.365 14.1545C99.9983 14.1545 99.6149 14.1712 99.2149 14.2045V23.7045H102.315C104.115 23.7045 105.482 23.2545 106.415 22.3545C107.348 21.4545 107.815 20.1712 107.815 18.5045C107.815 17.0045 107.348 15.9045 106.415 15.2045C105.515 14.5045 103.815 14.1545 101.315 14.1545ZM136.949 9.35449C139.549 9.35449 141.849 9.80449 143.849 10.7045C145.849 11.6045 147.532 12.8378 148.899 14.4045C150.266 15.9378 151.299 17.7212 151.999 19.7545C152.699 21.7878 153.049 23.9212 153.049 26.1545C153.049 28.3545 152.699 30.4878 151.999 32.5545C151.332 34.5878 150.299 36.4045 148.899 38.0045C147.532 39.5712 145.816 40.8378 143.749 41.8045C141.716 42.7378 139.332 43.2045 136.599 43.2045C133.932 43.2045 131.616 42.7545 129.649 41.8545C127.682 40.9545 126.049 39.7378 124.749 38.2045C123.449 36.6712 122.466 34.9045 121.799 32.9045C121.166 30.8712 120.849 28.7378 120.849 26.5045C120.849 24.1378 121.199 21.9212 121.899 19.8545C122.632 17.7545 123.682 15.9378 125.049 14.4045C126.416 12.8378 128.099 11.6045 130.099 10.7045C132.099 9.80449 134.382 9.35449 136.949 9.35449ZM136.699 38.3045C138.532 38.3045 140.082 38.0045 141.349 37.4045C142.649 36.7712 143.716 35.9212 144.549 34.8545C145.382 33.7545 145.982 32.4712 146.349 31.0045C146.749 29.5378 146.949 27.9712 146.949 26.3045C146.949 24.5045 146.749 22.8712 146.349 21.4045C145.949 19.9378 145.332 18.6712 144.499 17.6045C143.666 16.5378 142.599 15.7212 141.299 15.1545C140.032 14.5545 138.532 14.2545 136.799 14.2545C135.032 14.2545 133.516 14.5545 132.249 15.1545C131.016 15.7212 129.999 16.5212 129.199 17.5545C128.432 18.5878 127.866 19.8212 127.499 21.2545C127.166 22.6878 126.999 24.2712 126.999 26.0045C126.999 30.0712 127.832 33.1378 129.499 35.2045C131.166 37.2712 133.566 38.3045 136.699 38.3045ZM180.958 33.8545V9.60449H186.708V42.6045H179.658L165.158 18.4045V42.6045H159.408V9.60449H166.458L180.958 33.8545ZM209.142 9.35449C211.742 9.35449 214.042 9.80449 216.042 10.7045C218.042 11.6045 219.726 12.8378 221.092 14.4045C222.459 15.9378 223.492 17.7212 224.192 19.7545C224.892 21.7878 225.242 23.9212 225.242 26.1545C225.242 28.3545 224.892 30.4878 224.192 32.5545C223.526 34.5878 222.492 36.4045 221.092 38.0045C219.726 39.5712 218.009 40.8378 215.942 41.8045C213.909 42.7378 211.526 43.2045 208.792 43.2045C206.126 43.2045 203.809 42.7545 201.842 41.8545C199.876 40.9545 198.242 39.7378 196.942 38.2045C195.642 36.6712 194.659 34.9045 193.992 32.9045C193.359 30.8712 193.042 28.7378 193.042 26.5045C193.042 24.1378 193.392 21.9212 194.092 19.8545C194.826 17.7545 195.876 15.9378 197.242 14.4045C198.609 12.8378 200.292 11.6045 202.292 10.7045C204.292 9.80449 206.576 9.35449 209.142 9.35449ZM208.892 38.3045C210.726 38.3045 212.276 38.0045 213.542 37.4045C214.842 36.7712 215.909 35.9212 216.742 34.8545C217.576 33.7545 218.176 32.4712 218.542 31.0045C218.942 29.5378 219.142 27.9712 219.142 26.3045C219.142 24.5045 218.942 22.8712 218.542 21.4045C218.142 19.9378 217.526 18.6712 216.692 17.6045C215.859 16.5378 214.792 15.7212 213.492 15.1545C212.226 14.5545 210.726 14.2545 208.992 14.2545C207.226 14.2545 205.709 14.5545 204.442 15.1545C203.209 15.7212 202.192 16.5212 201.392 17.5545C200.626 18.5878 200.059 19.8212 199.692 21.2545C199.359 22.6878 199.192 24.2712 199.192 26.0045C199.192 30.0712 200.026 33.1378 201.692 35.2045C203.359 37.2712 205.759 38.3045 208.892 38.3045ZM226.162 9.60449H232.412L242.912 35.6045L252.412 9.60449H258.412L245.212 42.6045H240.662L226.162 9.60449ZM288.193 42.6045H281.943L278.193 33.0045H265.743L262.343 42.6045H256.343L269.143 9.60449H274.093L288.193 42.6045ZM267.343 28.5045H276.393L271.643 16.3545L267.343 28.5045Z" fill="#E7E7E7"/>
<path d="M6.33088 64.7395C5.41088 64.7395 4.59588 64.5695 3.88588 64.2295C3.18588 63.8795 2.63588 63.3545 2.23588 62.6545C1.83588 61.9445 1.63588 61.0495 1.63588 59.9695C1.63588 59.1095 1.76088 58.3145 2.01088 57.5845C2.27088 56.8445 2.63588 56.1995 3.10588 55.6495C3.58588 55.0995 4.17088 54.6695 4.86088 54.3595C5.56088 54.0495 6.34588 53.8945 7.21588 53.8945C7.81588 53.8945 8.38588 53.9795 8.92588 54.1495C9.46588 54.3195 9.93588 54.5645 10.3359 54.8845C10.4859 54.9945 10.5759 55.1245 10.6059 55.2745C10.6459 55.4145 10.6409 55.5545 10.5909 55.6945C10.5509 55.8345 10.4809 55.9545 10.3809 56.0545C10.2909 56.1445 10.1759 56.1995 10.0359 56.2195C9.90588 56.2295 9.77088 56.1895 9.63088 56.0995C9.24088 55.7995 8.84588 55.5895 8.44588 55.4695C8.04588 55.3395 7.61588 55.2745 7.15588 55.2745C6.34588 55.2745 5.65088 55.4795 5.07088 55.8895C4.49088 56.2895 4.04588 56.8445 3.73588 57.5545C3.43588 58.2545 3.28588 59.0495 3.28588 59.9395C3.28588 60.7495 3.41088 61.4045 3.66088 61.9045C3.91088 62.4045 4.27088 62.7745 4.74088 63.0145C5.22088 63.2445 5.80088 63.3595 6.48088 63.3595C6.90088 63.3595 7.29588 63.3045 7.66588 63.1945C8.03588 63.0745 8.41088 62.8795 8.79088 62.6095C8.95088 62.5095 9.10088 62.4695 9.24088 62.4895C9.38088 62.4995 9.49588 62.5545 9.58588 62.6545C9.68588 62.7445 9.75088 62.8595 9.78088 62.9995C9.81088 63.1295 9.80088 63.2645 9.75088 63.4045C9.70088 63.5445 9.60088 63.6645 9.45088 63.7645C9.00088 64.0945 8.50588 64.3395 7.96588 64.4995C7.42588 64.6595 6.88088 64.7395 6.33088 64.7395ZM14.8603 64.7395C14.1403 64.7395 13.5153 64.6095 12.9853 64.3495C12.4653 64.0795 12.0603 63.6995 11.7703 63.2095C11.4903 62.7195 11.3503 62.1395 11.3503 61.4695C11.3503 60.6695 11.5153 59.9445 11.8453 59.2945C12.1753 58.6445 12.6353 58.1245 13.2253 57.7345C13.8253 57.3445 14.5203 57.1495 15.3103 57.1495C15.9003 57.1495 16.3953 57.2545 16.7953 57.4645C17.1953 57.6645 17.5103 57.9395 17.7403 58.2895C17.9703 58.6395 18.1203 59.0345 18.1903 59.4745C18.2703 59.9145 18.2853 60.3645 18.2353 60.8245C18.2153 61.0145 18.1653 61.1395 18.0853 61.1995C18.0053 61.2595 17.8903 61.2895 17.7403 61.2895H12.5503L12.6703 60.3595H17.2753L17.0053 60.5695C17.0753 60.1295 17.0603 59.7345 16.9603 59.3845C16.8703 59.0345 16.6903 58.7545 16.4203 58.5445C16.1503 58.3245 15.7753 58.2145 15.2953 58.2145C14.8053 58.2145 14.3903 58.3295 14.0503 58.5595C13.7203 58.7795 13.4603 59.0645 13.2703 59.4145C13.0903 59.7645 12.9653 60.1345 12.8953 60.5245L12.8353 60.9295C12.6953 61.7295 12.8153 62.3695 13.1953 62.8495C13.5853 63.3295 14.1753 63.5695 14.9653 63.5695C15.2953 63.5695 15.6253 63.5295 15.9553 63.4495C16.2853 63.3695 16.5903 63.2395 16.8703 63.0595C17.0303 62.9695 17.1703 62.9295 17.2903 62.9395C17.4203 62.9395 17.5203 62.9795 17.5903 63.0595C17.6703 63.1395 17.7203 63.2395 17.7403 63.3595C17.7603 63.4695 17.7403 63.5895 17.6803 63.7195C17.6303 63.8395 17.5353 63.9445 17.3953 64.0345C17.0553 64.2745 16.6503 64.4545 16.1803 64.5745C15.7103 64.6845 15.2703 64.7395 14.8603 64.7395ZM20.6219 64.7095C20.3919 64.7095 20.2219 64.6295 20.1119 64.4695C20.0019 64.3095 19.9669 64.0895 20.0069 63.8095L20.9369 57.9295C20.9769 57.6795 21.0719 57.4945 21.2219 57.3745C21.3719 57.2445 21.5669 57.1795 21.8069 57.1795C22.0269 57.1795 22.1919 57.2495 22.3019 57.3895C22.4119 57.5295 22.4419 57.7395 22.3919 58.0195L22.2269 59.1295L22.1369 58.8745C22.3869 58.3145 22.7469 57.8895 23.2169 57.5995C23.6969 57.2995 24.2619 57.1495 24.9119 57.1495C25.4519 57.1495 25.9019 57.2595 26.2619 57.4795C26.6319 57.6995 26.8919 58.0345 27.0419 58.4845C27.2019 58.9345 27.2269 59.5045 27.1169 60.1945L26.5319 63.9595C26.5019 64.2095 26.4119 64.3995 26.2619 64.5295C26.1119 64.6495 25.9119 64.7095 25.6619 64.7095C25.4219 64.7095 25.2469 64.6295 25.1369 64.4695C25.0269 64.3095 24.9919 64.0945 25.0319 63.8245L25.6019 60.2245C25.7019 59.5945 25.6519 59.1295 25.4519 58.8295C25.2519 58.5195 24.8919 58.3645 24.3719 58.3645C23.7019 58.3645 23.1669 58.5695 22.7669 58.9795C22.3769 59.3895 22.1269 59.9495 22.0169 60.6595L21.4919 63.9595C21.4219 64.4595 21.1319 64.7095 20.6219 64.7095ZM32.3395 64.7395C31.7395 64.7395 31.2395 64.6245 30.8395 64.3945C30.4495 64.1645 30.1745 63.8445 30.0145 63.4345C29.8645 63.0245 29.8345 62.5445 29.9245 61.9945L30.4945 58.4545H29.6845C29.4845 58.4545 29.3245 58.4095 29.2045 58.3195C29.0945 58.2295 29.0395 58.1095 29.0395 57.9595C29.0395 57.7395 29.1095 57.5745 29.2495 57.4645C29.3995 57.3445 29.5895 57.2845 29.8195 57.2845H30.6745L30.9295 55.6795C30.9695 55.4395 31.0595 55.2645 31.1995 55.1545C31.3395 55.0345 31.5245 54.9745 31.7545 54.9745C32.0145 54.9745 32.1995 55.0495 32.3095 55.1995C32.4195 55.3395 32.4545 55.5445 32.4145 55.8145L32.1895 57.2845H33.8395C34.0495 57.2845 34.2095 57.3245 34.3195 57.4045C34.4295 57.4845 34.4845 57.6095 34.4845 57.7795C34.4845 57.9695 34.4195 58.1295 34.2895 58.2595C34.1695 58.3895 33.9945 58.4545 33.7645 58.4545H32.0095L31.4545 61.8745C31.3645 62.4445 31.4295 62.8545 31.6495 63.1045C31.8695 63.3545 32.1945 63.4795 32.6245 63.4795C32.8145 63.4795 32.9645 63.4645 33.0745 63.4345C33.1945 63.3945 33.2995 63.3745 33.3895 63.3745C33.5095 63.3745 33.5945 63.4095 33.6445 63.4795C33.7045 63.5395 33.7345 63.6495 33.7345 63.8095C33.7345 64.0795 33.6895 64.2695 33.5995 64.3795C33.5195 64.4895 33.3995 64.5695 33.2395 64.6195C33.1295 64.6595 32.9845 64.6895 32.8045 64.7095C32.6345 64.7295 32.4795 64.7395 32.3395 64.7395ZM35.943 64.7095C35.703 64.7095 35.528 64.6345 35.418 64.4845C35.308 64.3345 35.273 64.1245 35.313 63.8545L36.258 57.9145C36.298 57.6645 36.388 57.4795 36.528 57.3595C36.678 57.2395 36.873 57.1795 37.113 57.1795C37.343 57.1795 37.513 57.2545 37.623 57.4045C37.733 57.5445 37.768 57.7545 37.728 58.0345L37.563 59.0395H37.413C37.613 58.4495 37.953 57.9945 38.433 57.6745C38.913 57.3445 39.463 57.1645 40.083 57.1345C40.333 57.1245 40.498 57.1595 40.578 57.2395C40.668 57.3195 40.713 57.4595 40.713 57.6595C40.713 57.9195 40.653 58.1095 40.533 58.2295C40.413 58.3495 40.218 58.4245 39.948 58.4545L39.588 58.4995C38.848 58.5695 38.318 58.7895 37.998 59.1595C37.678 59.5295 37.463 60.0345 37.353 60.6745L36.828 63.9895C36.798 64.2295 36.708 64.4095 36.558 64.5295C36.408 64.6495 36.203 64.7095 35.943 64.7095ZM44.9312 64.7395C44.2112 64.7395 43.5862 64.6095 43.0562 64.3495C42.5362 64.0795 42.1312 63.6995 41.8412 63.2095C41.5612 62.7195 41.4212 62.1395 41.4212 61.4695C41.4212 60.6695 41.5862 59.9445 41.9162 59.2945C42.2462 58.6445 42.7062 58.1245 43.2962 57.7345C43.8962 57.3445 44.5912 57.1495 45.3812 57.1495C45.9712 57.1495 46.4662 57.2545 46.8662 57.4645C47.2662 57.6645 47.5812 57.9395 47.8112 58.2895C48.0412 58.6395 48.1912 59.0345 48.2612 59.4745C48.3412 59.9145 48.3562 60.3645 48.3062 60.8245C48.2862 61.0145 48.2362 61.1395 48.1562 61.1995C48.0762 61.2595 47.9612 61.2895 47.8112 61.2895H42.6212L42.7412 60.3595H47.3462L47.0762 60.5695C47.1462 60.1295 47.1312 59.7345 47.0312 59.3845C46.9412 59.0345 46.7612 58.7545 46.4912 58.5445C46.2212 58.3245 45.8462 58.2145 45.3662 58.2145C44.8762 58.2145 44.4612 58.3295 44.1212 58.5595C43.7912 58.7795 43.5312 59.0645 43.3412 59.4145C43.1612 59.7645 43.0362 60.1345 42.9662 60.5245L42.9062 60.9295C42.7662 61.7295 42.8862 62.3695 43.2662 62.8495C43.6562 63.3295 44.2462 63.5695 45.0362 63.5695C45.3662 63.5695 45.6962 63.5295 46.0262 63.4495C46.3562 63.3695 46.6612 63.2395 46.9412 63.0595C47.1012 62.9695 47.2412 62.9295 47.3612 62.9395C47.4912 62.9395 47.5912 62.9795 47.6612 63.0595C47.7412 63.1395 47.7912 63.2395 47.8112 63.3595C47.8312 63.4695 47.8112 63.5895 47.7512 63.7195C47.7012 63.8395 47.6062 63.9445 47.4662 64.0345C47.1262 64.2745 46.7212 64.4545 46.2512 64.5745C45.7812 64.6845 45.3412 64.7395 44.9312 64.7395ZM55.6829 64.7095C55.4529 64.7095 55.2829 64.6345 55.1729 64.4845C55.0629 64.3245 55.0279 64.1045 55.0679 63.8245L55.9229 58.4545H55.1579C54.9579 58.4545 54.8079 58.4145 54.7079 58.3345C54.6079 58.2445 54.5579 58.1295 54.5579 57.9895C54.5579 57.7695 54.6229 57.5995 54.7529 57.4795C54.8829 57.3495 55.0529 57.2845 55.2629 57.2845H56.2829L56.0729 57.4795L56.1779 56.8195C56.3079 55.9895 56.6329 55.3345 57.1529 54.8545C57.6829 54.3645 58.4279 54.0845 59.3879 54.0145L59.8529 53.9845C60.0229 53.9745 60.1529 54.0045 60.2429 54.0745C60.3429 54.1445 60.4079 54.2395 60.4379 54.3595C60.4679 54.4695 60.4679 54.5845 60.4379 54.7045C60.4079 54.8145 60.3529 54.9145 60.2729 55.0045C60.1929 55.0845 60.0929 55.1295 59.9729 55.1395L59.5379 55.1695C58.9879 55.2095 58.5629 55.3645 58.2629 55.6345C57.9629 55.9045 57.7729 56.2995 57.6929 56.8195L57.5879 57.4345L57.4679 57.2845H59.0129C59.2129 57.2845 59.3629 57.3245 59.4629 57.4045C59.5629 57.4845 59.6129 57.5995 59.6129 57.7495C59.6129 57.9695 59.5479 58.1445 59.4179 58.2745C59.2879 58.3945 59.1129 58.4545 58.8929 58.4545H57.4379L56.5679 63.9595C56.4779 64.4595 56.1829 64.7095 55.6829 64.7095ZM63.528 64.7395C62.838 64.7395 62.248 64.6095 61.758 64.3495C61.268 64.0895 60.888 63.7145 60.618 63.2245C60.358 62.7345 60.228 62.1545 60.228 61.4845C60.228 60.8445 60.323 60.2645 60.513 59.7445C60.713 59.2145 60.988 58.7545 61.338 58.3645C61.698 57.9745 62.118 57.6745 62.598 57.4645C63.078 57.2545 63.603 57.1495 64.173 57.1495C64.863 57.1495 65.453 57.2845 65.943 57.5545C66.433 57.8145 66.808 58.1895 67.068 58.6795C67.338 59.1595 67.473 59.7345 67.473 60.4045C67.473 61.0445 67.373 61.6295 67.173 62.1595C66.983 62.6895 66.708 63.1495 66.348 63.5395C65.998 63.9195 65.583 64.2145 65.103 64.4245C64.623 64.6345 64.098 64.7395 63.528 64.7395ZM63.558 63.5695C64.078 63.5695 64.513 63.4245 64.863 63.1345C65.213 62.8445 65.478 62.4595 65.658 61.9795C65.848 61.4895 65.943 60.9495 65.943 60.3595C65.943 59.6995 65.783 59.1995 65.463 58.8595C65.143 58.5095 64.703 58.3345 64.143 58.3345C63.633 58.3345 63.198 58.4795 62.838 58.7695C62.488 59.0495 62.218 59.4345 62.028 59.9245C61.848 60.4045 61.758 60.9445 61.758 61.5445C61.758 62.1945 61.918 62.6945 62.238 63.0445C62.558 63.3945 62.998 63.5695 63.558 63.5695ZM69.9244 64.7095C69.6844 64.7095 69.5094 64.6345 69.3994 64.4845C69.2894 64.3345 69.2544 64.1245 69.2944 63.8545L70.2394 57.9145C70.2794 57.6645 70.3694 57.4795 70.5094 57.3595C70.6594 57.2395 70.8544 57.1795 71.0944 57.1795C71.3244 57.1795 71.4944 57.2545 71.6044 57.4045C71.7144 57.5445 71.7494 57.7545 71.7094 58.0345L71.5444 59.0395H71.3944C71.5944 58.4495 71.9344 57.9945 72.4144 57.6745C72.8944 57.3445 73.4444 57.1645 74.0644 57.1345C74.3144 57.1245 74.4794 57.1595 74.5594 57.2395C74.6494 57.3195 74.6944 57.4595 74.6944 57.6595C74.6944 57.9195 74.6344 58.1095 74.5144 58.2295C74.3944 58.3495 74.1994 58.4245 73.9294 58.4545L73.5694 58.4995C72.8294 58.5695 72.2994 58.7895 71.9794 59.1595C71.6594 59.5295 71.4444 60.0345 71.3344 60.6745L70.8094 63.9895C70.7794 64.2295 70.6894 64.4095 70.5394 64.5295C70.3894 64.6495 70.1844 64.7095 69.9244 64.7095ZM80.8852 64.6645C80.6452 64.6645 80.4702 64.5945 80.3602 64.4545C80.2602 64.3145 80.2252 64.1195 80.2552 63.8695L81.7252 54.5845C81.7652 54.3545 81.8452 54.1895 81.9652 54.0895C82.0952 53.9795 82.2702 53.9245 82.4902 53.9245C82.6902 53.9245 82.8452 53.9695 82.9552 54.0595C83.0652 54.1395 83.1602 54.2845 83.2402 54.4945L85.9252 61.7695H85.5052L90.6202 54.3745C90.7402 54.2145 90.8602 54.0995 90.9802 54.0295C91.1102 53.9595 91.2752 53.9245 91.4752 53.9245C91.7052 53.9245 91.8752 53.9945 91.9852 54.1345C92.0952 54.2745 92.1302 54.4645 92.0902 54.7045L90.6052 63.9895C90.5752 64.2095 90.5002 64.3795 90.3802 64.4995C90.2602 64.6095 90.0852 64.6645 89.8552 64.6645C89.6252 64.6645 89.4552 64.5945 89.3452 64.4545C89.2352 64.3145 89.1952 64.1195 89.2252 63.8695L90.4402 56.1895H90.7852L86.2552 62.7295C86.1652 62.8695 86.0702 62.9695 85.9702 63.0295C85.8802 63.0795 85.7652 63.1045 85.6252 63.1045C85.4552 63.1045 85.3202 63.0645 85.2202 62.9845C85.1302 62.9045 85.0552 62.7845 84.9952 62.6245L82.5502 56.2195H82.8652L81.6352 63.9895C81.6052 64.2095 81.5252 64.3795 81.3952 64.4995C81.2752 64.6095 81.1052 64.6645 80.8852 64.6645ZM94.1948 64.7095C93.9648 64.7095 93.7948 64.6345 93.6848 64.4845C93.5748 64.3245 93.5398 64.1045 93.5798 63.8245L94.5248 57.9295C94.5648 57.6795 94.6548 57.4945 94.7948 57.3745C94.9448 57.2445 95.1448 57.1795 95.3948 57.1795C95.6248 57.1795 95.7948 57.2595 95.9048 57.4195C96.0148 57.5695 96.0498 57.7845 96.0098 58.0645L95.0648 63.9595C95.0248 64.2095 94.9348 64.3995 94.7948 64.5295C94.6548 64.6495 94.4548 64.7095 94.1948 64.7095ZM95.6498 55.6495C95.3698 55.6495 95.1598 55.5795 95.0198 55.4395C94.8798 55.2995 94.8198 55.1045 94.8398 54.8545C94.8698 54.5545 94.9798 54.3295 95.1698 54.1795C95.3598 54.0195 95.6098 53.9395 95.9198 53.9395C96.2098 53.9395 96.4248 54.0095 96.5648 54.1495C96.7048 54.2895 96.7648 54.4845 96.7448 54.7345C96.7148 55.0345 96.6048 55.2645 96.4148 55.4245C96.2348 55.5745 95.9798 55.6495 95.6498 55.6495ZM101.187 64.7395C100.437 64.7395 99.8122 64.6045 99.3122 64.3345C98.8222 64.0545 98.4522 63.6695 98.2022 63.1795C97.9622 62.6795 97.8422 62.1045 97.8422 61.4545C97.8422 60.9145 97.9222 60.3895 98.0822 59.8795C98.2422 59.3595 98.4822 58.8995 98.8022 58.4995C99.1322 58.0895 99.5522 57.7645 100.062 57.5245C100.572 57.2745 101.172 57.1495 101.862 57.1495C102.232 57.1495 102.592 57.1995 102.942 57.2995C103.302 57.3895 103.612 57.5145 103.872 57.6745C104.042 57.7745 104.157 57.8895 104.217 58.0195C104.287 58.1395 104.312 58.2645 104.292 58.3945C104.272 58.5145 104.222 58.6195 104.142 58.7095C104.072 58.7995 103.977 58.8595 103.857 58.8895C103.737 58.9095 103.607 58.8795 103.467 58.7995C103.227 58.6395 102.982 58.5245 102.732 58.4545C102.492 58.3845 102.227 58.3495 101.937 58.3495C101.477 58.3495 101.087 58.4395 100.767 58.6195C100.447 58.7895 100.182 59.0295 99.9722 59.3395C99.7722 59.6395 99.6272 59.9695 99.5372 60.3295C99.4472 60.6895 99.4022 61.0595 99.4022 61.4395C99.4022 62.0795 99.5522 62.5895 99.8522 62.9695C100.162 63.3495 100.672 63.5395 101.382 63.5395C101.602 63.5395 101.832 63.5095 102.072 63.4495C102.312 63.3895 102.557 63.2795 102.807 63.1195C102.927 63.0595 103.042 63.0395 103.152 63.0595C103.262 63.0795 103.357 63.1345 103.437 63.2245C103.517 63.3045 103.567 63.3995 103.587 63.5095C103.607 63.6195 103.592 63.7345 103.542 63.8545C103.502 63.9745 103.407 64.0795 103.257 64.1695C102.997 64.3495 102.672 64.4895 102.282 64.5895C101.892 64.6895 101.527 64.7395 101.187 64.7395ZM106.059 64.7095C105.819 64.7095 105.644 64.6345 105.534 64.4845C105.424 64.3345 105.389 64.1245 105.429 63.8545L106.374 57.9145C106.414 57.6645 106.504 57.4795 106.644 57.3595C106.794 57.2395 106.989 57.1795 107.229 57.1795C107.459 57.1795 107.629 57.2545 107.739 57.4045C107.849 57.5445 107.884 57.7545 107.844 58.0345L107.679 59.0395H107.529C107.729 58.4495 108.069 57.9945 108.549 57.6745C109.029 57.3445 109.579 57.1645 110.199 57.1345C110.449 57.1245 110.614 57.1595 110.694 57.2395C110.784 57.3195 110.829 57.4595 110.829 57.6595C110.829 57.9195 110.769 58.1095 110.649 58.2295C110.529 58.3495 110.334 58.4245 110.064 58.4545L109.704 58.4995C108.964 58.5695 108.434 58.7895 108.114 59.1595C107.794 59.5295 107.579 60.0345 107.469 60.6745L106.944 63.9895C106.914 64.2295 106.824 64.4095 106.674 64.5295C106.524 64.6495 106.319 64.7095 106.059 64.7095ZM114.837 64.7395C114.147 64.7395 113.557 64.6095 113.067 64.3495C112.577 64.0895 112.197 63.7145 111.927 63.2245C111.667 62.7345 111.537 62.1545 111.537 61.4845C111.537 60.8445 111.632 60.2645 111.822 59.7445C112.022 59.2145 112.297 58.7545 112.647 58.3645C113.007 57.9745 113.427 57.6745 113.907 57.4645C114.387 57.2545 114.912 57.1495 115.482 57.1495C116.172 57.1495 116.762 57.2845 117.252 57.5545C117.742 57.8145 118.117 58.1895 118.377 58.6795C118.647 59.1595 118.782 59.7345 118.782 60.4045C118.782 61.0445 118.682 61.6295 118.482 62.1595C118.292 62.6895 118.017 63.1495 117.657 63.5395C117.307 63.9195 116.892 64.2145 116.412 64.4245C115.932 64.6345 115.407 64.7395 114.837 64.7395ZM114.867 63.5695C115.387 63.5695 115.822 63.4245 116.172 63.1345C116.522 62.8445 116.787 62.4595 116.967 61.9795C117.157 61.4895 117.252 60.9495 117.252 60.3595C117.252 59.6995 117.092 59.1995 116.772 58.8595C116.452 58.5095 116.012 58.3345 115.452 58.3345C114.942 58.3345 114.507 58.4795 114.147 58.7695C113.797 59.0495 113.527 59.4345 113.337 59.9245C113.157 60.4045 113.067 60.9445 113.067 61.5445C113.067 62.1945 113.227 62.6945 113.547 63.0445C113.867 63.3945 114.307 63.5695 114.867 63.5695ZM127.499 64.7395C127.069 64.7395 126.669 64.6445 126.299 64.4545C125.929 64.2545 125.634 63.9895 125.414 63.6595C125.194 63.3195 125.084 62.9395 125.084 62.5195C125.084 61.9995 125.224 61.5795 125.504 61.2595C125.794 60.9395 126.244 60.7045 126.854 60.5545C127.464 60.3945 128.249 60.3145 129.209 60.3145H130.409L130.274 61.2445H129.344C128.654 61.2445 128.104 61.2795 127.694 61.3495C127.294 61.4195 127.009 61.5445 126.839 61.7245C126.669 61.8945 126.584 62.1295 126.584 62.4295C126.584 62.8295 126.714 63.1345 126.974 63.3445C127.244 63.5545 127.564 63.6595 127.934 63.6595C128.274 63.6595 128.589 63.5845 128.879 63.4345C129.169 63.2845 129.414 63.0695 129.614 62.7895C129.824 62.4995 129.959 62.1545 130.019 61.7545L130.304 59.9545C130.394 59.4245 130.319 59.0195 130.079 58.7395C129.849 58.4595 129.434 58.3195 128.834 58.3195C128.484 58.3195 128.144 58.3545 127.814 58.4245C127.494 58.4945 127.169 58.6145 126.839 58.7845C126.689 58.8645 126.549 58.8945 126.419 58.8745C126.289 58.8445 126.184 58.7895 126.104 58.7095C126.024 58.6195 125.979 58.5145 125.969 58.3945C125.959 58.2745 125.989 58.1545 126.059 58.0345C126.139 57.9145 126.269 57.8095 126.449 57.7195C126.849 57.5195 127.274 57.3745 127.724 57.2845C128.174 57.1945 128.604 57.1495 129.014 57.1495C129.744 57.1495 130.319 57.2845 130.739 57.5545C131.169 57.8245 131.459 58.1995 131.609 58.6795C131.769 59.1595 131.799 59.7145 131.699 60.3445L131.129 63.9595C131.099 64.2095 131.009 64.3995 130.859 64.5295C130.719 64.6495 130.534 64.7095 130.304 64.7095C130.084 64.7095 129.919 64.6395 129.809 64.4995C129.699 64.3495 129.664 64.1395 129.704 63.8695L129.869 62.7745L129.989 62.9995C129.859 63.3895 129.659 63.7195 129.389 63.9895C129.129 64.2495 128.834 64.4395 128.504 64.5595C128.184 64.6795 127.849 64.7395 127.499 64.7395ZM134.446 64.7095C134.216 64.7095 134.046 64.6295 133.936 64.4695C133.826 64.3095 133.791 64.0895 133.831 63.8095L134.761 57.9295C134.801 57.6795 134.896 57.4945 135.046 57.3745C135.196 57.2445 135.391 57.1795 135.631 57.1795C135.851 57.1795 136.016 57.2495 136.126 57.3895C136.236 57.5295 136.266 57.7395 136.216 58.0195L136.051 59.1295L135.961 58.8745C136.211 58.3145 136.571 57.8895 137.041 57.5995C137.521 57.2995 138.086 57.1495 138.736 57.1495C139.276 57.1495 139.726 57.2595 140.086 57.4795C140.456 57.6995 140.716 58.0345 140.866 58.4845C141.026 58.9345 141.051 59.5045 140.941 60.1945L140.356 63.9595C140.326 64.2095 140.236 64.3995 140.086 64.5295C139.936 64.6495 139.736 64.7095 139.486 64.7095C139.246 64.7095 139.071 64.6295 138.961 64.4695C138.851 64.3095 138.816 64.0945 138.856 63.8245L139.426 60.2245C139.526 59.5945 139.476 59.1295 139.276 58.8295C139.076 58.5195 138.716 58.3645 138.196 58.3645C137.526 58.3645 136.991 58.5695 136.591 58.9795C136.201 59.3895 135.951 59.9495 135.841 60.6595L135.316 63.9595C135.246 64.4595 134.956 64.7095 134.446 64.7095ZM145.848 64.7395C145.288 64.7395 144.798 64.6145 144.378 64.3645C143.968 64.1045 143.643 63.7395 143.403 63.2695C143.173 62.7995 143.058 62.2445 143.058 61.6045C143.058 60.7845 143.203 60.0395 143.493 59.3695C143.783 58.6895 144.203 58.1495 144.753 57.7495C145.303 57.3495 145.963 57.1495 146.733 57.1495C147.313 57.1495 147.823 57.2945 148.263 57.5845C148.713 57.8645 149.023 58.2895 149.193 58.8595L149.088 58.8445L149.748 54.6445C149.788 54.3845 149.878 54.1995 150.018 54.0895C150.168 53.9795 150.368 53.9245 150.618 53.9245C150.848 53.9245 151.018 53.9995 151.128 54.1495C151.238 54.2895 151.273 54.4995 151.233 54.7795L149.778 63.9445C149.738 64.1945 149.643 64.3845 149.493 64.5145C149.353 64.6445 149.158 64.7095 148.908 64.7095C148.678 64.7095 148.508 64.6295 148.398 64.4695C148.298 64.3095 148.273 64.0895 148.323 63.8095L148.488 62.8195L148.548 63.1345C148.278 63.6245 147.913 64.0145 147.453 64.3045C146.993 64.5945 146.458 64.7395 145.848 64.7395ZM146.403 63.5695C146.913 63.5695 147.343 63.4245 147.693 63.1345C148.043 62.8445 148.308 62.4595 148.488 61.9795C148.678 61.4895 148.773 60.9495 148.773 60.3595C148.773 59.6995 148.613 59.1995 148.293 58.8595C147.973 58.5095 147.533 58.3345 146.973 58.3345C146.463 58.3345 146.033 58.4795 145.683 58.7695C145.333 59.0495 145.063 59.4345 144.873 59.9245C144.683 60.4045 144.588 60.9445 144.588 61.5445C144.588 62.1945 144.748 62.6945 145.068 63.0445C145.388 63.3945 145.833 63.5695 146.403 63.5695ZM157.87 64.7095C157.65 64.7095 157.48 64.6345 157.36 64.4845C157.25 64.3345 157.215 64.1245 157.255 63.8545L158.725 54.5845C158.765 54.3545 158.85 54.1895 158.98 54.0895C159.11 53.9795 159.265 53.9245 159.445 53.9245C159.645 53.9245 159.795 53.9645 159.895 54.0445C160.005 54.1145 160.11 54.2345 160.21 54.4045L165.01 62.6545H164.68L165.94 54.6295C165.98 54.3895 166.07 54.2145 166.21 54.1045C166.35 53.9845 166.54 53.9245 166.78 53.9245C167 53.9245 167.16 53.9995 167.26 54.1495C167.36 54.2995 167.39 54.5045 167.35 54.7645L165.88 64.0345C165.85 64.2645 165.78 64.4345 165.67 64.5445C165.56 64.6545 165.41 64.7095 165.22 64.7095C165.02 64.7095 164.86 64.6695 164.74 64.5895C164.62 64.5095 164.505 64.3795 164.395 64.1995L159.595 55.9795H159.925L158.665 64.0045C158.635 64.2445 158.555 64.4245 158.425 64.5445C158.305 64.6545 158.12 64.7095 157.87 64.7095ZM171.163 64.7395C170.733 64.7395 170.333 64.6445 169.963 64.4545C169.593 64.2545 169.298 63.9895 169.078 63.6595C168.858 63.3195 168.748 62.9395 168.748 62.5195C168.748 61.9995 168.888 61.5795 169.168 61.2595C169.458 60.9395 169.908 60.7045 170.518 60.5545C171.128 60.3945 171.913 60.3145 172.873 60.3145H174.073L173.938 61.2445H173.008C172.318 61.2445 171.768 61.2795 171.358 61.3495C170.958 61.4195 170.673 61.5445 170.503 61.7245C170.333 61.8945 170.248 62.1295 170.248 62.4295C170.248 62.8295 170.378 63.1345 170.638 63.3445C170.908 63.5545 171.228 63.6595 171.598 63.6595C171.938 63.6595 172.253 63.5845 172.543 63.4345C172.833 63.2845 173.078 63.0695 173.278 62.7895C173.488 62.4995 173.623 62.1545 173.683 61.7545L173.968 59.9545C174.058 59.4245 173.983 59.0195 173.743 58.7395C173.513 58.4595 173.098 58.3195 172.498 58.3195C172.148 58.3195 171.808 58.3545 171.478 58.4245C171.158 58.4945 170.833 58.6145 170.503 58.7845C170.353 58.8645 170.213 58.8945 170.083 58.8745C169.953 58.8445 169.848 58.7895 169.768 58.7095C169.688 58.6195 169.643 58.5145 169.633 58.3945C169.623 58.2745 169.653 58.1545 169.723 58.0345C169.803 57.9145 169.933 57.8095 170.113 57.7195C170.513 57.5195 170.938 57.3745 171.388 57.2845C171.838 57.1945 172.268 57.1495 172.678 57.1495C173.408 57.1495 173.983 57.2845 174.403 57.5545C174.833 57.8245 175.123 58.1995 175.273 58.6795C175.433 59.1595 175.463 59.7145 175.363 60.3445L174.793 63.9595C174.763 64.2095 174.673 64.3995 174.523 64.5295C174.383 64.6495 174.198 64.7095 173.968 64.7095C173.748 64.7095 173.583 64.6395 173.473 64.4995C173.363 64.3495 173.328 64.1395 173.368 63.8695L173.533 62.7745L173.653 62.9995C173.523 63.3895 173.323 63.7195 173.053 63.9895C172.793 64.2495 172.498 64.4395 172.168 64.5595C171.848 64.6795 171.513 64.7395 171.163 64.7395ZM178.11 64.7095C177.88 64.7095 177.71 64.6295 177.6 64.4695C177.49 64.3095 177.455 64.0895 177.495 63.8095L178.425 57.9295C178.465 57.6795 178.56 57.4945 178.71 57.3745C178.86 57.2445 179.055 57.1795 179.295 57.1795C179.515 57.1795 179.68 57.2495 179.79 57.3895C179.9 57.5295 179.93 57.7395 179.88 58.0195L179.715 59.1295L179.625 58.8745C179.875 58.3145 180.235 57.8895 180.705 57.5995C181.185 57.2995 181.75 57.1495 182.4 57.1495C182.94 57.1495 183.39 57.2595 183.75 57.4795C184.12 57.6995 184.38 58.0345 184.53 58.4845C184.69 58.9345 184.715 59.5045 184.605 60.1945L184.02 63.9595C183.99 64.2095 183.9 64.3995 183.75 64.5295C183.6 64.6495 183.4 64.7095 183.15 64.7095C182.91 64.7095 182.735 64.6295 182.625 64.4695C182.515 64.3095 182.48 64.0945 182.52 63.8245L183.09 60.2245C183.19 59.5945 183.14 59.1295 182.94 58.8295C182.74 58.5195 182.38 58.3645 181.86 58.3645C181.19 58.3645 180.655 58.5695 180.255 58.9795C179.865 59.3895 179.615 59.9495 179.505 60.6595L178.98 63.9595C178.91 64.4595 178.62 64.7095 178.11 64.7095ZM190.037 64.7395C189.347 64.7395 188.757 64.6095 188.267 64.3495C187.777 64.0895 187.397 63.7145 187.127 63.2245C186.867 62.7345 186.737 62.1545 186.737 61.4845C186.737 60.8445 186.832 60.2645 187.022 59.7445C187.222 59.2145 187.497 58.7545 187.847 58.3645C188.207 57.9745 188.627 57.6745 189.107 57.4645C189.587 57.2545 190.112 57.1495 190.682 57.1495C191.372 57.1495 191.962 57.2845 192.452 57.5545C192.942 57.8145 193.317 58.1895 193.577 58.6795C193.847 59.1595 193.982 59.7345 193.982 60.4045C193.982 61.0445 193.882 61.6295 193.682 62.1595C193.492 62.6895 193.217 63.1495 192.857 63.5395C192.507 63.9195 192.092 64.2145 191.612 64.4245C191.132 64.6345 190.607 64.7395 190.037 64.7395ZM190.067 63.5695C190.587 63.5695 191.022 63.4245 191.372 63.1345C191.722 62.8445 191.987 62.4595 192.167 61.9795C192.357 61.4895 192.452 60.9495 192.452 60.3595C192.452 59.6995 192.292 59.1995 191.972 58.8595C191.652 58.5095 191.212 58.3345 190.652 58.3345C190.142 58.3345 189.707 58.4795 189.347 58.7695C188.997 59.0495 188.727 59.4345 188.537 59.9245C188.357 60.4045 188.267 60.9445 188.267 61.5445C188.267 62.1945 188.427 62.6945 188.747 63.0445C189.067 63.3945 189.507 63.5695 190.067 63.5695ZM198.835 64.7395C198.235 64.7395 197.735 64.6245 197.335 64.3945C196.945 64.1645 196.67 63.8445 196.51 63.4345C196.36 63.0245 196.33 62.5445 196.42 61.9945L196.99 58.4545H196.18C195.98 58.4545 195.82 58.4095 195.7 58.3195C195.59 58.2295 195.535 58.1095 195.535 57.9595C195.535 57.7395 195.605 57.5745 195.745 57.4645C195.895 57.3445 196.085 57.2845 196.315 57.2845H197.17L197.425 55.6795C197.465 55.4395 197.555 55.2645 197.695 55.1545C197.835 55.0345 198.02 54.9745 198.25 54.9745C198.51 54.9745 198.695 55.0495 198.805 55.1995C198.915 55.3395 198.95 55.5445 198.91 55.8145L198.685 57.2845H200.335C200.545 57.2845 200.705 57.3245 200.815 57.4045C200.925 57.4845 200.98 57.6095 200.98 57.7795C200.98 57.9695 200.915 58.1295 200.785 58.2595C200.665 58.3895 200.49 58.4545 200.26 58.4545H198.505L197.95 61.8745C197.86 62.4445 197.925 62.8545 198.145 63.1045C198.365 63.3545 198.69 63.4795 199.12 63.4795C199.31 63.4795 199.46 63.4645 199.57 63.4345C199.69 63.3945 199.795 63.3745 199.885 63.3745C200.005 63.3745 200.09 63.4095 200.14 63.4795C200.2 63.5395 200.23 63.6495 200.23 63.8095C200.23 64.0795 200.185 64.2695 200.095 64.3795C200.015 64.4895 199.895 64.5695 199.735 64.6195C199.625 64.6595 199.48 64.6895 199.3 64.7095C199.13 64.7295 198.975 64.7395 198.835 64.7395ZM205.261 64.7395C204.541 64.7395 203.916 64.6095 203.386 64.3495C202.866 64.0795 202.461 63.6995 202.171 63.2095C201.891 62.7195 201.751 62.1395 201.751 61.4695C201.751 60.6695 201.916 59.9445 202.246 59.2945C202.576 58.6445 203.036 58.1245 203.626 57.7345C204.226 57.3445 204.921 57.1495 205.711 57.1495C206.301 57.1495 206.796 57.2545 207.196 57.4645C207.596 57.6645 207.911 57.9395 208.141 58.2895C208.371 58.6395 208.521 59.0345 208.591 59.4745C208.671 59.9145 208.686 60.3645 208.636 60.8245C208.616 61.0145 208.566 61.1395 208.486 61.1995C208.406 61.2595 208.291 61.2895 208.141 61.2895H202.951L203.071 60.3595H207.676L207.406 60.5695C207.476 60.1295 207.461 59.7345 207.361 59.3845C207.271 59.0345 207.091 58.7545 206.821 58.5445C206.551 58.3245 206.176 58.2145 205.696 58.2145C205.206 58.2145 204.791 58.3295 204.451 58.5595C204.121 58.7795 203.861 59.0645 203.671 59.4145C203.491 59.7645 203.366 60.1345 203.296 60.5245L203.236 60.9295C203.096 61.7295 203.216 62.3695 203.596 62.8495C203.986 63.3295 204.576 63.5695 205.366 63.5695C205.696 63.5695 206.026 63.5295 206.356 63.4495C206.686 63.3695 206.991 63.2395 207.271 63.0595C207.431 62.9695 207.571 62.9295 207.691 62.9395C207.821 62.9395 207.921 62.9795 207.991 63.0595C208.071 63.1395 208.121 63.2395 208.141 63.3595C208.161 63.4695 208.141 63.5895 208.081 63.7195C208.031 63.8395 207.936 63.9445 207.796 64.0345C207.456 64.2745 207.051 64.4545 206.581 64.5745C206.111 64.6845 205.671 64.7395 205.261 64.7395ZM213.752 64.7395C213.002 64.7395 212.377 64.6045 211.877 64.3345C211.387 64.0545 211.017 63.6695 210.767 63.1795C210.527 62.6795 210.407 62.1045 210.407 61.4545C210.407 60.9145 210.487 60.3895 210.647 59.8795C210.807 59.3595 211.047 58.8995 211.367 58.4995C211.697 58.0895 212.117 57.7645 212.627 57.5245C213.137 57.2745 213.737 57.1495 214.427 57.1495C214.797 57.1495 215.157 57.1995 215.507 57.2995C215.867 57.3895 216.177 57.5145 216.437 57.6745C216.607 57.7745 216.722 57.8895 216.782 58.0195C216.852 58.1395 216.877 58.2645 216.857 58.3945C216.837 58.5145 216.787 58.6195 216.707 58.7095C216.637 58.7995 216.542 58.8595 216.422 58.8895C216.302 58.9095 216.172 58.8795 216.032 58.7995C215.792 58.6395 215.547 58.5245 215.297 58.4545C215.057 58.3845 214.792 58.3495 214.502 58.3495C214.042 58.3495 213.652 58.4395 213.332 58.6195C213.012 58.7895 212.747 59.0295 212.537 59.3395C212.337 59.6395 212.192 59.9695 212.102 60.3295C212.012 60.6895 211.967 61.0595 211.967 61.4395C211.967 62.0795 212.117 62.5895 212.417 62.9695C212.727 63.3495 213.237 63.5395 213.947 63.5395C214.167 63.5395 214.397 63.5095 214.637 63.4495C214.877 63.3895 215.122 63.2795 215.372 63.1195C215.492 63.0595 215.607 63.0395 215.717 63.0595C215.827 63.0795 215.922 63.1345 216.002 63.2245C216.082 63.3045 216.132 63.3995 216.152 63.5095C216.172 63.6195 216.157 63.7345 216.107 63.8545C216.067 63.9745 215.972 64.0795 215.822 64.1695C215.562 64.3495 215.237 64.4895 214.847 64.5895C214.457 64.6895 214.092 64.7395 213.752 64.7395ZM218.624 64.7095C218.384 64.7095 218.209 64.6295 218.099 64.4695C217.999 64.3095 217.969 64.0895 218.009 63.8095L219.449 54.6745C219.489 54.4245 219.579 54.2395 219.719 54.1195C219.869 53.9895 220.069 53.9245 220.319 53.9245C220.549 53.9245 220.719 53.9995 220.829 54.1495C220.949 54.2995 220.989 54.5145 220.949 54.7945L220.304 58.8745H220.139C220.389 58.3145 220.749 57.8895 221.219 57.5995C221.699 57.2995 222.264 57.1495 222.914 57.1495C223.454 57.1495 223.904 57.2595 224.264 57.4795C224.634 57.6995 224.894 58.0345 225.044 58.4845C225.204 58.9345 225.229 59.5045 225.119 60.1945L224.534 63.9595C224.504 64.1995 224.414 64.3845 224.264 64.5145C224.114 64.6445 223.914 64.7095 223.664 64.7095C223.424 64.7095 223.249 64.6345 223.139 64.4845C223.029 64.3245 222.994 64.1045 223.034 63.8245L223.604 60.2245C223.704 59.5945 223.654 59.1295 223.454 58.8295C223.254 58.5195 222.894 58.3645 222.374 58.3645C221.704 58.3645 221.169 58.5695 220.769 58.9795C220.379 59.3895 220.129 59.9495 220.019 60.6595L219.494 63.9595C219.424 64.4595 219.134 64.7095 218.624 64.7095ZM227.867 64.7095C227.637 64.7095 227.467 64.6295 227.357 64.4695C227.247 64.3095 227.212 64.0895 227.252 63.8095L228.182 57.9295C228.222 57.6795 228.317 57.4945 228.467 57.3745C228.617 57.2445 228.812 57.1795 229.052 57.1795C229.272 57.1795 229.437 57.2495 229.547 57.3895C229.657 57.5295 229.687 57.7395 229.637 58.0195L229.472 59.1295L229.382 58.8745C229.632 58.3145 229.992 57.8895 230.462 57.5995C230.942 57.2995 231.507 57.1495 232.157 57.1495C232.697 57.1495 233.147 57.2595 233.507 57.4795C233.877 57.6995 234.137 58.0345 234.287 58.4845C234.447 58.9345 234.472 59.5045 234.362 60.1945L233.777 63.9595C233.747 64.2095 233.657 64.3995 233.507 64.5295C233.357 64.6495 233.157 64.7095 232.907 64.7095C232.667 64.7095 232.492 64.6295 232.382 64.4695C232.272 64.3095 232.237 64.0945 232.277 63.8245L232.847 60.2245C232.947 59.5945 232.897 59.1295 232.697 58.8295C232.497 58.5195 232.137 58.3645 231.617 58.3645C230.947 58.3645 230.412 58.5695 230.012 58.9795C229.622 59.3895 229.372 59.9495 229.262 60.6595L228.737 63.9595C228.667 64.4595 228.377 64.7095 227.867 64.7095ZM239.794 64.7395C239.104 64.7395 238.514 64.6095 238.024 64.3495C237.534 64.0895 237.154 63.7145 236.884 63.2245C236.624 62.7345 236.494 62.1545 236.494 61.4845C236.494 60.8445 236.589 60.2645 236.779 59.7445C236.979 59.2145 237.254 58.7545 237.604 58.3645C237.964 57.9745 238.384 57.6745 238.864 57.4645C239.344 57.2545 239.869 57.1495 240.439 57.1495C241.129 57.1495 241.719 57.2845 242.209 57.5545C242.699 57.8145 243.074 58.1895 243.334 58.6795C243.604 59.1595 243.739 59.7345 243.739 60.4045C243.739 61.0445 243.639 61.6295 243.439 62.1595C243.249 62.6895 242.974 63.1495 242.614 63.5395C242.264 63.9195 241.849 64.2145 241.369 64.4245C240.889 64.6345 240.364 64.7395 239.794 64.7395ZM239.824 63.5695C240.344 63.5695 240.779 63.4245 241.129 63.1345C241.479 62.8445 241.744 62.4595 241.924 61.9795C242.114 61.4895 242.209 60.9495 242.209 60.3595C242.209 59.6995 242.049 59.1995 241.729 58.8595C241.409 58.5095 240.969 58.3345 240.409 58.3345C239.899 58.3345 239.464 58.4795 239.104 58.7695C238.754 59.0495 238.484 59.4345 238.294 59.9245C238.114 60.4045 238.024 60.9445 238.024 61.5445C238.024 62.1945 238.184 62.6945 238.504 63.0445C238.824 63.3945 239.264 63.5695 239.824 63.5695ZM247.826 64.7395C247.056 64.7395 246.496 64.5195 246.146 64.0795C245.806 63.6295 245.701 62.9745 245.831 62.1145L247.031 54.6745C247.071 54.4245 247.161 54.2395 247.301 54.1195C247.451 53.9895 247.651 53.9245 247.901 53.9245C248.131 53.9245 248.301 53.9995 248.411 54.1495C248.521 54.2995 248.556 54.5195 248.516 54.8095L247.346 62.0995C247.266 62.5895 247.306 62.9445 247.466 63.1645C247.626 63.3845 247.891 63.4945 248.261 63.4945C248.381 63.4945 248.476 63.4845 248.546 63.4645C248.626 63.4445 248.696 63.4345 248.756 63.4345C248.836 63.4345 248.901 63.4645 248.951 63.5245C249.001 63.5845 249.026 63.6995 249.026 63.8695C249.026 64.0995 248.976 64.2795 248.876 64.4095C248.776 64.5395 248.646 64.6245 248.486 64.6645C248.406 64.6945 248.301 64.7145 248.171 64.7245C248.041 64.7345 247.926 64.7395 247.826 64.7395ZM253.988 64.7395C253.298 64.7395 252.708 64.6095 252.218 64.3495C251.728 64.0895 251.348 63.7145 251.078 63.2245C250.818 62.7345 250.688 62.1545 250.688 61.4845C250.688 60.8445 250.783 60.2645 250.973 59.7445C251.173 59.2145 251.448 58.7545 251.798 58.3645C252.158 57.9745 252.578 57.6745 253.058 57.4645C253.538 57.2545 254.063 57.1495 254.633 57.1495C255.323 57.1495 255.913 57.2845 256.403 57.5545C256.893 57.8145 257.268 58.1895 257.528 58.6795C257.798 59.1595 257.933 59.7345 257.933 60.4045C257.933 61.0445 257.833 61.6295 257.633 62.1595C257.443 62.6895 257.168 63.1495 256.808 63.5395C256.458 63.9195 256.043 64.2145 255.563 64.4245C255.083 64.6345 254.558 64.7395 253.988 64.7395ZM254.018 63.5695C254.538 63.5695 254.973 63.4245 255.323 63.1345C255.673 62.8445 255.938 62.4595 256.118 61.9795C256.308 61.4895 256.403 60.9495 256.403 60.3595C256.403 59.6995 256.243 59.1995 255.923 58.8595C255.603 58.5095 255.163 58.3345 254.603 58.3345C254.093 58.3345 253.658 58.4795 253.298 58.7695C252.948 59.0495 252.678 59.4345 252.488 59.9245C252.308 60.4045 252.218 60.9445 252.218 61.5445C252.218 62.1945 252.378 62.6945 252.698 63.0445C253.018 63.3945 253.458 63.5695 254.018 63.5695ZM262.934 67.4395C262.344 67.4395 261.789 67.3645 261.269 67.2145C260.749 67.0745 260.289 66.8795 259.889 66.6295C259.749 66.5495 259.654 66.4495 259.604 66.3295C259.564 66.2095 259.559 66.0895 259.589 65.9695C259.619 65.8495 259.674 65.7445 259.754 65.6545C259.844 65.5745 259.949 65.5245 260.069 65.5045C260.199 65.4845 260.339 65.5195 260.489 65.6095C260.819 65.8095 261.169 65.9695 261.539 66.0895C261.909 66.2095 262.304 66.2695 262.724 66.2695C263.354 66.2695 263.859 66.1195 264.239 65.8195C264.629 65.5195 264.879 65.0445 264.989 64.3945L265.244 62.8195L265.364 62.8345C265.124 63.3345 264.769 63.7245 264.299 64.0045C263.829 64.2845 263.294 64.4245 262.694 64.4245C262.104 64.4245 261.589 64.3045 261.149 64.0645C260.719 63.8245 260.379 63.4795 260.129 63.0295C259.889 62.5795 259.769 62.0445 259.769 61.4245C259.769 60.8645 259.854 60.3295 260.024 59.8195C260.194 59.2995 260.439 58.8395 260.759 58.4395C261.079 58.0395 261.464 57.7245 261.914 57.4945C262.374 57.2645 262.894 57.1495 263.474 57.1495C264.064 57.1495 264.584 57.2945 265.034 57.5845C265.484 57.8645 265.794 58.2895 265.964 58.8595L265.799 59.1595L265.994 57.9145C266.034 57.6645 266.124 57.4795 266.264 57.3595C266.414 57.2395 266.609 57.1795 266.849 57.1795C267.089 57.1795 267.259 57.2595 267.359 57.4195C267.459 57.5695 267.489 57.7845 267.449 58.0645L266.459 64.3195C266.299 65.3495 265.924 66.1245 265.334 66.6445C264.754 67.1745 263.954 67.4395 262.934 67.4395ZM263.129 63.2395C263.649 63.2395 264.089 63.0995 264.449 62.8195C264.809 62.5395 265.079 62.1695 265.259 61.7095C265.449 61.2395 265.544 60.7395 265.544 60.2095C265.544 59.6195 265.384 59.1595 265.064 58.8295C264.744 58.4995 264.289 58.3345 263.699 58.3345C263.189 58.3345 262.754 58.4745 262.394 58.7545C262.034 59.0345 261.759 59.4045 261.569 59.8645C261.389 60.3245 261.299 60.8195 261.299 61.3495C261.299 61.9495 261.459 62.4145 261.779 62.7445C262.099 63.0745 262.549 63.2395 263.129 63.2395ZM270.475 67.4095C270.285 67.4095 270.135 67.3645 270.025 67.2745C269.925 67.1845 269.87 67.0645 269.86 66.9145C269.86 66.7645 269.905 66.6095 269.995 66.4495L271.42 64.0945L271.315 64.7395L269.545 58.2295C269.495 58.0295 269.485 57.8495 269.515 57.6895C269.555 57.5295 269.64 57.4045 269.77 57.3145C269.9 57.2245 270.055 57.1795 270.235 57.1795C270.455 57.1795 270.615 57.2295 270.715 57.3295C270.825 57.4295 270.91 57.6095 270.97 57.8695L272.335 63.3745H271.885L275.14 57.7345C275.25 57.5345 275.365 57.3945 275.485 57.3145C275.605 57.2245 275.765 57.1795 275.965 57.1795C276.155 57.1795 276.305 57.2295 276.415 57.3295C276.535 57.4195 276.6 57.5395 276.61 57.6895C276.62 57.8295 276.575 57.9895 276.475 58.1695L271.3 66.8695C271.19 67.0595 271.075 67.1945 270.955 67.2745C270.835 67.3645 270.675 67.4095 270.475 67.4095Z" fill="#E7E7E7"/>
</svg>
