<svg width="40" height="37" viewBox="0 0 40 37" fill="none" xmlns="http://www.w3.org/2000/svg">
<g clip-path="url(#clip0_323:514)">
<path d="M12.4137 16.3052H7.62206L10.0165 7.39791L12.4137 16.3052ZM19.8263 25.7201L12.9479 0.719238H7.07381L0.209473 25.7201H5.09059L6.2822 21.2989H13.7563L14.9451 25.7237L19.8263 25.7201Z" fill="#F8F8F8"/>
<path d="M32.9287 32.3562L32.649 33.6523C32.5986 33.9079 32.5622 34.1023 32.5343 34.2932L32.5063 34.1815C32.4559 33.9439 32.4559 33.9367 32.3916 33.6703L32.0643 32.3562H31.3622L32.0979 34.772C32.1762 35.0204 32.1818 35.0384 32.1818 35.132C32.1818 35.3805 32.0755 35.4921 31.8434 35.4921H31.6503V36.1293H32.0336C32.5315 36.1293 32.6378 36.0105 32.8476 35.2437L33.6224 32.3634L32.9287 32.3562ZM31.0378 32.3922H30.635V31.4813H29.9776V32.3922H29.6643V32.9862H29.9776V34.2968C29.9776 34.7432 30.0056 34.898 30.1063 35.042C30.207 35.1861 30.3469 35.2329 30.6322 35.2329H31.049V34.592H30.814C30.6601 34.592 30.6462 34.556 30.6462 34.1023V32.9862H31.049L31.0378 32.3922ZM29.214 31.2617H28.5566V31.9565H29.214V31.2617ZM29.214 32.3418H28.5566V35.2221H29.214V32.3418ZM28.0951 33.2059C28.0392 32.601 27.6895 32.2662 27.1161 32.2662C26.5427 32.2662 26.165 32.6262 26.165 33.195C26.165 33.6523 26.3552 33.8863 26.8448 34.0231L27.2503 34.1419C27.4266 34.196 27.4993 34.2716 27.4993 34.4048C27.4993 34.538 27.3594 34.6856 27.158 34.6856C26.8951 34.6856 26.7552 34.556 26.7189 34.286H26.1035C26.1399 34.9232 26.5231 35.2977 27.1441 35.2977C27.765 35.2977 28.1483 34.916 28.1483 34.3112C28.1543 34.098 28.0938 33.8906 27.9804 33.7351C27.8379 33.575 27.6597 33.4767 27.4713 33.4543L27.0601 33.3427C26.8531 33.2815 26.7804 33.2311 26.7804 33.123C26.7804 33.015 26.9063 32.8854 27.0937 32.8854C27.2811 32.8854 27.4462 32.997 27.4713 33.2131L28.0951 33.2059ZM24.4112 32.3418V35.2221H25.0685V34.4192C25.0463 34.0767 25.0757 33.7319 25.1552 33.4039C25.2462 33.1685 25.4381 33.0265 25.642 33.0438C25.6979 33.0395 25.7539 33.0395 25.8098 33.0438V32.2806C25.3343 32.2806 25.1664 32.4066 25.0378 32.871L25.0573 32.3598L24.4112 32.3418ZM22.3608 33.4219C22.3857 33.1154 22.5916 32.8867 22.8308 32.8998C22.9429 32.8909 23.0529 32.9418 23.1349 33.0406C23.217 33.1394 23.2638 33.2773 23.2643 33.4219H22.3608ZM23.9413 34.0159C23.9432 33.7311 23.9053 33.4482 23.8294 33.1806C23.6879 32.6295 23.2784 32.2673 22.828 32.295C22.5169 32.2864 22.2171 32.4449 22.0006 32.7325C21.784 33.0201 21.6703 33.4108 21.6867 33.8107C21.6639 34.2137 21.7764 34.6099 21.9957 34.8991C22.215 35.1882 22.52 35.3425 22.8336 35.3229C23.311 35.3684 23.7517 34.9921 23.9049 34.4084H23.2392C23.1565 34.5799 23.0068 34.6783 22.8504 34.664C22.7208 34.6718 22.5944 34.612 22.4996 34.4981C22.4048 34.3843 22.3497 34.226 22.3469 34.0591L23.9413 34.0159ZM20.6937 35.2041L21.4517 32.3238H20.7385L20.5119 33.4255C20.4783 33.5983 20.4252 33.9259 20.372 34.2536C20.2993 33.8935 20.2434 33.6271 20.1958 33.4255L19.9469 32.3238H19.2615L20.0615 35.2041H20.6937ZM18.8559 31.2437H18.1818V31.9565H18.8392L18.8559 31.2437ZM18.8559 32.3238H18.1818V35.2041H18.8392L18.8559 32.3238ZM15.5469 32.3238V35.2041H16.2042V33.6163C16.1861 33.4474 16.2214 33.2762 16.3021 33.141C16.3737 33.0401 16.4756 32.9836 16.5818 32.9862C16.6913 32.9739 16.7976 33.0368 16.8615 33.1518C16.9257 33.3087 16.9502 33.4875 16.9315 33.6631V35.2293H17.5888V33.3679C17.5888 32.691 17.2923 32.2877 16.8084 32.2877C16.5739 32.2865 16.3508 32.4182 16.1986 32.6478V32.367L15.5469 32.3238ZM14.2266 31.2437V33.9007C14.2479 34.0837 14.2013 34.269 14.1007 34.4012C13.8518 34.64 13.5105 34.64 13.2615 34.4012C13.1579 34.271 13.1082 34.0855 13.1273 33.9007V31.2617H12.4364V33.9439C12.4007 34.3396 12.5253 34.7311 12.7664 34.9808C13.3174 35.4338 14.0225 35.4338 14.5734 34.9808C14.8147 34.7326 14.9403 34.3426 14.9063 33.9475V31.2617L14.2266 31.2437ZM9.68112 32.9502C10.0196 32.9502 10.207 33.2527 10.207 33.8071C10.207 34.3616 10.014 34.6208 9.68112 34.6208C9.34825 34.6208 9.15804 34.3112 9.15804 33.7747C9.15804 33.2383 9.34825 32.9358 9.68112 32.9358V32.9502ZM9.68112 32.2626C9.03151 32.2626 8.5049 32.9404 8.5049 33.7765C8.5049 34.6126 9.03151 35.2905 9.68112 35.2905C10.3307 35.2905 10.8573 34.6126 10.8573 33.7765C10.8573 32.9404 10.3307 32.2626 9.68112 32.2626ZM8.20699 32.3742H7.8042V31.4813H7.14965V32.3922H6.83357V32.9862H7.14685V34.2968C7.14685 34.7432 7.17483 34.898 7.27552 35.042C7.37622 35.1861 7.51608 35.2329 7.8014 35.2329H8.2042V34.592H7.97203C7.81818 34.592 7.80699 34.556 7.80699 34.1023V32.9862H8.20979L8.20699 32.3742ZM6.43357 31.2617H5.77063V35.2221H6.43357V31.2617ZM4.58182 34.3004C4.49056 34.5319 4.30218 34.6729 4.1007 34.6604C3.8965 34.6604 3.76783 34.5488 3.76783 34.358C3.76783 34.1671 3.86853 34.0843 4.10629 33.9979L4.34126 33.9331C4.42351 33.9132 4.50407 33.883 4.58182 33.8431V34.3004ZM3.82378 33.2599C3.85175 33.0294 3.98042 32.8998 4.21538 32.8998C4.45035 32.8998 4.56224 33.0006 4.56224 33.1662C4.56224 33.3319 4.51189 33.3319 4.36364 33.3607L4.00839 33.4363C3.38462 33.5659 3.12168 33.8467 3.12168 34.3832C3.12168 34.9196 3.44895 35.2869 3.93846 35.2869C4.17587 35.3023 4.408 35.1931 4.58182 34.9844C4.6042 35.0924 4.6042 35.1104 4.63217 35.2113H5.3035C5.23077 35.0672 5.21958 35.0276 5.21958 34.718V33.4147C5.25354 33.1057 5.17153 32.7944 4.9986 32.5758C4.77945 32.3549 4.50418 32.247 4.22657 32.2734C3.5972 32.2734 3.27832 32.5938 3.23636 33.2599H3.82378ZM1.81538 33.6991H1.11888L1.49371 32.1473L1.81538 33.6991ZM1.96923 34.4192L2.13427 35.2149H2.92028L1.94126 31.2545H1.07692L0 35.2293H0.752448L0.945455 34.4336L1.96923 34.4192Z" fill="#F8F8F8"/>
<path d="M27.06 20.0468V25.7066H22.6628V20.0468H27.06ZM24.895 0.0576172C29.1663 0.0576172 32.1481 2.75429 32.1481 7.57157H32.1369C32.1369 10.7219 30.5705 12.4069 29.1048 13.6526C27.488 15.0279 27.0488 15.7912 27.0488 17.7894V18.0162H22.6572V17.4618C22.6572 13.739 23.7761 12.1764 25.6251 10.8407C26.9034 9.9262 27.4628 9.05132 27.4628 7.76599C27.4628 6.15303 26.3747 5.09812 24.839 5.09812C23.1719 5.09812 21.9439 6.14223 21.9439 8.47166H17.5747V7.68678C17.5747 2.81189 20.7635 0.0576172 24.895 0.0576172Z" fill="#F8F8F8"/>
</g>
<defs>
<clipPath id="clip0_323:514">
<rect width="40" height="36.3636" fill="white"/>
</clipPath>
</defs>
</svg>
