<svg width="142" height="38" viewBox="0 0 142 38" fill="none" xmlns="http://www.w3.org/2000/svg">
<path d="M10.656 17.256L15.912 5.16H19.056V21H16.32V10.56L11.76 21H9.552L4.872 10.56V21H2.112V5.16H5.256L10.656 17.256ZM26.1561 21H23.3961V5.16H26.1561V21ZM41.6364 8.568C41.1244 8.216 40.5084 7.936 39.7884 7.728C39.0844 7.504 38.2764 7.392 37.3644 7.392C36.5004 7.392 35.7564 7.528 35.1324 7.8C34.5244 8.072 34.0284 8.456 33.6444 8.952C33.2604 9.448 32.9724 10.048 32.7804 10.752C32.6044 11.44 32.5164 12.208 32.5164 13.056C32.5164 14.992 32.9244 16.456 33.7404 17.448C34.5724 18.44 35.7644 18.936 37.3164 18.936C38.2764 18.936 39.1484 18.792 39.9324 18.504C40.7324 18.216 41.3884 17.864 41.9004 17.448L42.6204 19.824C41.9804 20.208 41.2044 20.552 40.2924 20.856C39.3964 21.144 38.3804 21.288 37.2444 21.288C35.9324 21.288 34.7964 21.072 33.8364 20.64C32.8764 20.208 32.0764 19.624 31.4364 18.888C30.8124 18.152 30.3484 17.304 30.0444 16.344C29.7404 15.368 29.5884 14.336 29.5884 13.248C29.5884 12.112 29.7564 11.048 30.0924 10.056C30.4284 9.064 30.9244 8.2 31.5804 7.464C32.2524 6.712 33.0764 6.12 34.0524 5.688C35.0444 5.256 36.1964 5.04 37.5084 5.04C38.3724 5.04 39.2364 5.136 40.1004 5.328C40.9644 5.504 41.7084 5.752 42.3324 6.072L41.6364 8.568ZM49.5788 14.232C49.4028 14.232 49.2188 14.232 49.0268 14.232C48.8508 14.232 48.6588 14.224 48.4508 14.208V21H45.6908V5.16C45.9468 5.144 46.2348 5.128 46.5548 5.112C46.8908 5.096 47.2268 5.088 47.5628 5.088C47.8988 5.072 48.2108 5.064 48.4988 5.064C48.8028 5.048 49.0428 5.04 49.2188 5.04C51.2668 5.04 52.8268 5.432 53.8988 6.216C54.9708 6.984 55.5068 8.112 55.5068 9.6C55.5068 10.544 55.2748 11.392 54.8108 12.144C54.3468 12.896 53.5708 13.456 52.4828 13.824L58.2908 21H55.0988L49.5788 14.232ZM49.4588 7.344C49.3308 7.344 49.1788 7.344 49.0028 7.344C48.8268 7.344 48.6428 7.352 48.4508 7.368V11.928H49.9388C50.8028 11.928 51.4588 11.712 51.9068 11.28C52.3548 10.848 52.5788 10.232 52.5788 9.432C52.5788 8.712 52.3548 8.184 51.9068 7.848C51.4748 7.512 50.6588 7.344 49.4588 7.344ZM66.9231 5.04C68.1711 5.04 69.2751 5.256 70.2351 5.688C71.1951 6.12 72.0031 6.712 72.6591 7.464C73.3151 8.2 73.8111 9.056 74.1471 10.032C74.4831 11.008 74.6511 12.032 74.6511 13.104C74.6511 14.16 74.4831 15.184 74.1471 16.176C73.8271 17.152 73.3311 18.024 72.6591 18.792C72.0031 19.544 71.1791 20.152 70.1871 20.616C69.2111 21.064 68.0671 21.288 66.7551 21.288C65.4751 21.288 64.3631 21.072 63.4191 20.64C62.4751 20.208 61.6911 19.624 61.0671 18.888C60.4431 18.152 59.9711 17.304 59.6511 16.344C59.3471 15.368 59.1951 14.344 59.1951 13.272C59.1951 12.136 59.3631 11.072 59.6991 10.08C60.0511 9.072 60.5551 8.2 61.2111 7.464C61.8671 6.712 62.6751 6.12 63.6351 5.688C64.5951 5.256 65.6911 5.04 66.9231 5.04ZM66.8031 18.936C67.6831 18.936 68.4271 18.792 69.0351 18.504C69.6591 18.2 70.1711 17.792 70.5711 17.28C70.9711 16.752 71.2591 16.136 71.4351 15.432C71.6271 14.728 71.7231 13.976 71.7231 13.176C71.7231 12.312 71.6271 11.528 71.4351 10.824C71.2431 10.12 70.9471 9.512 70.5471 9C70.1471 8.488 69.6351 8.096 69.0111 7.824C68.4031 7.536 67.6831 7.392 66.8511 7.392C66.0031 7.392 65.2751 7.536 64.6671 7.824C64.0751 8.096 63.5871 8.48 63.2031 8.976C62.8351 9.472 62.5631 10.064 62.3871 10.752C62.2271 11.44 62.1471 12.2 62.1471 13.032C62.1471 14.984 62.5471 16.456 63.3471 17.448C64.1471 18.44 65.2991 18.936 66.8031 18.936ZM88.4076 16.8V5.16H91.1676V21H87.7836L80.8236 9.384V21H78.0636V5.16H81.4476L88.4076 16.8ZM102.296 5.04C103.544 5.04 104.648 5.256 105.608 5.688C106.568 6.12 107.376 6.712 108.032 7.464C108.688 8.2 109.184 9.056 109.52 10.032C109.856 11.008 110.024 12.032 110.024 13.104C110.024 14.16 109.856 15.184 109.52 16.176C109.2 17.152 108.704 18.024 108.032 18.792C107.376 19.544 106.552 20.152 105.56 20.616C104.584 21.064 103.44 21.288 102.128 21.288C100.848 21.288 99.7359 21.072 98.7919 20.64C97.8479 20.208 97.0639 19.624 96.4399 18.888C95.8159 18.152 95.3439 17.304 95.0239 16.344C94.7199 15.368 94.5679 14.344 94.5679 13.272C94.5679 12.136 94.7359 11.072 95.0719 10.08C95.4239 9.072 95.9279 8.2 96.5839 7.464C97.2399 6.712 98.0479 6.12 99.0079 5.688C99.9679 5.256 101.064 5.04 102.296 5.04ZM102.176 18.936C103.056 18.936 103.8 18.792 104.408 18.504C105.032 18.2 105.544 17.792 105.944 17.28C106.344 16.752 106.632 16.136 106.808 15.432C107 14.728 107.096 13.976 107.096 13.176C107.096 12.312 107 11.528 106.808 10.824C106.616 10.12 106.32 9.512 105.92 9C105.52 8.488 105.008 8.096 104.384 7.824C103.776 7.536 103.056 7.392 102.224 7.392C101.376 7.392 100.648 7.536 100.04 7.824C99.4479 8.096 98.9599 8.48 98.5759 8.976C98.2079 9.472 97.9359 10.064 97.7599 10.752C97.5999 11.44 97.5199 12.2 97.5199 13.032C97.5199 14.984 97.9199 16.456 98.7199 17.448C99.5199 18.44 100.672 18.936 102.176 18.936ZM110.825 5.16H113.825L118.865 17.64L123.425 5.16H126.305L119.969 21H117.785L110.825 5.16ZM140.96 21H137.96L136.16 16.392H130.184L128.552 21H125.672L131.816 5.16H134.192L140.96 21ZM130.952 14.232H135.296L133.016 8.4L130.952 14.232Z" fill="#F8F8F8"/>
<path d="M5.008 35.064C4.50667 35.064 4.06933 34.9573 3.696 34.744C3.32267 34.5307 3.03467 34.224 2.832 33.824C2.62933 33.4187 2.528 32.944 2.528 32.4C2.528 31.776 2.64 31.2293 2.864 30.76C3.09333 30.2907 3.41867 29.9307 3.84 29.68C4.26133 29.424 4.752 29.296 5.312 29.296C5.70133 29.296 6.056 29.3493 6.376 29.456C6.70133 29.5627 6.968 29.7093 7.176 29.896C7.29333 29.9813 7.352 30.0907 7.352 30.224C7.352 30.3147 7.32 30.3947 7.256 30.464C7.19733 30.5333 7.12533 30.568 7.04 30.568C6.96533 30.568 6.89067 30.5413 6.816 30.488C6.41067 30.152 5.91467 29.984 5.328 29.984C4.70933 29.984 4.22933 30.2 3.888 30.632C3.54667 31.0587 3.376 31.6507 3.376 32.408C3.376 33.0427 3.52267 33.5307 3.816 33.872C4.11467 34.208 4.53867 34.376 5.088 34.376C5.34933 34.376 5.60267 34.3333 5.848 34.248C6.09867 34.1573 6.328 34.032 6.536 33.872C6.61067 33.8187 6.68533 33.792 6.76 33.792C6.84533 33.792 6.912 33.824 6.96 33.888C7.01333 33.9467 7.04 34.0213 7.04 34.112C7.04 34.24 6.98667 34.3467 6.88 34.432C6.656 34.6293 6.384 34.784 6.064 34.896C5.744 35.008 5.392 35.064 5.008 35.064ZM11.3519 32.856C11.3519 32.9627 11.3226 33.0453 11.2639 33.104C11.2106 33.1573 11.1359 33.184 11.0399 33.184H8.55194C8.55727 33.5787 8.6586 33.8853 8.85594 34.104C9.05327 34.3173 9.3386 34.424 9.71194 34.424C10.0853 34.424 10.4319 34.3173 10.7519 34.104C10.8106 34.0667 10.8693 34.048 10.9279 34.048C11.0026 34.048 11.0639 34.0773 11.1119 34.136C11.1599 34.1947 11.1839 34.264 11.1839 34.344C11.1839 34.4667 11.1306 34.5707 11.0239 34.656C10.8799 34.7733 10.6799 34.8693 10.4239 34.944C10.1733 35.0187 9.91994 35.056 9.66394 35.056C9.27994 35.056 8.94394 34.9787 8.65594 34.824C8.36794 34.6693 8.14394 34.448 7.98394 34.16C7.82927 33.872 7.75194 33.5387 7.75194 33.16C7.75194 32.7387 7.83194 32.3653 7.99194 32.04C8.15727 31.7093 8.3866 31.4533 8.67994 31.272C8.97327 31.0907 9.31194 31 9.69594 31C10.2293 31 10.6373 31.16 10.9199 31.48C11.2079 31.7947 11.3519 32.2533 11.3519 32.856ZM9.72794 31.592C9.4026 31.592 9.14394 31.688 8.95194 31.88C8.75994 32.072 8.63727 32.352 8.58394 32.72H10.6479C10.6586 32.352 10.5813 32.072 10.4159 31.88C10.2559 31.688 10.0266 31.592 9.72794 31.592ZM14.4983 31C14.9356 31 15.2663 31.1147 15.4903 31.344C15.7196 31.5733 15.8343 31.912 15.8343 32.36C15.8343 32.4667 15.8316 32.5467 15.8263 32.6L15.6663 34.656C15.6556 34.7787 15.6103 34.8747 15.5303 34.944C15.4556 35.008 15.357 35.04 15.2343 35.04C15.1116 35.04 15.0156 35.008 14.9463 34.944C14.877 34.8747 14.8476 34.7787 14.8583 34.656L15.0183 32.64C15.0236 32.6027 15.0263 32.5467 15.0263 32.472C15.0263 31.928 14.765 31.656 14.2423 31.656C13.9116 31.656 13.6476 31.7547 13.4503 31.952C13.2583 32.1493 13.149 32.424 13.1223 32.776L12.9703 34.656C12.9596 34.7787 12.9143 34.8747 12.8343 34.944C12.7596 35.008 12.661 35.04 12.5383 35.04C12.4156 35.04 12.3196 35.008 12.2503 34.944C12.1863 34.8747 12.157 34.7787 12.1623 34.656L12.4263 31.384C12.4316 31.272 12.477 31.184 12.5623 31.12C12.6476 31.0507 12.749 31.016 12.8663 31.016C12.9783 31.016 13.0663 31.048 13.1303 31.112C13.1943 31.176 13.2236 31.264 13.2183 31.376L13.1943 31.656C13.3276 31.448 13.5063 31.288 13.7303 31.176C13.9596 31.0587 14.2156 31 14.4983 31ZM17.9957 33.552C17.9904 33.584 17.9877 33.632 17.9877 33.696C17.9877 33.936 18.041 34.12 18.1477 34.248C18.2597 34.3707 18.4144 34.432 18.6117 34.432C18.6757 34.432 18.7397 34.4293 18.8037 34.424C18.8677 34.4133 18.9184 34.408 18.9557 34.408C19.0197 34.408 19.0704 34.4347 19.1077 34.488C19.145 34.536 19.1637 34.6053 19.1637 34.696C19.1637 34.8293 19.1104 34.9227 19.0037 34.976C18.9024 35.0293 18.721 35.056 18.4597 35.056C18.0544 35.056 17.7397 34.944 17.5157 34.72C17.2917 34.496 17.1797 34.1813 17.1797 33.776C17.1797 33.6907 17.1824 33.624 17.1877 33.576L17.3317 31.72H16.8597C16.753 31.72 16.6704 31.6933 16.6117 31.64C16.553 31.5867 16.5237 31.512 16.5237 31.416C16.5237 31.3147 16.5557 31.2373 16.6197 31.184C16.6837 31.1253 16.777 31.096 16.8997 31.096H17.3797L17.4437 30.264C17.4544 30.152 17.4997 30.0613 17.5797 29.992C17.6597 29.9227 17.7584 29.888 17.8757 29.888C17.9984 29.888 18.0944 29.9227 18.1637 29.992C18.233 30.0613 18.2624 30.1547 18.2517 30.272L18.1877 31.096H18.9797C19.081 31.096 19.161 31.1227 19.2197 31.176C19.2784 31.2293 19.3077 31.3013 19.3077 31.392C19.3077 31.6107 19.185 31.72 18.9397 31.72H18.1397L17.9957 33.552ZM22.12 31.016C22.2213 31.0053 22.3013 31.0267 22.36 31.08C22.424 31.1333 22.456 31.2107 22.456 31.312C22.456 31.5573 22.3227 31.6907 22.056 31.712L21.84 31.736C21.472 31.7733 21.1973 31.88 21.016 32.056C20.84 32.232 20.7387 32.4907 20.712 32.832L20.56 34.656C20.5493 34.7893 20.504 34.888 20.424 34.952C20.344 35.0107 20.2453 35.04 20.128 35.04C20.0107 35.04 19.9147 35.008 19.84 34.944C19.7707 34.88 19.7413 34.784 19.752 34.656L20.016 31.384C20.0213 31.2667 20.0667 31.176 20.152 31.112C20.2373 31.048 20.336 31.016 20.448 31.016C20.5547 31.016 20.64 31.048 20.704 31.112C20.768 31.1707 20.7973 31.2587 20.792 31.376L20.768 31.704C21.0347 31.2933 21.456 31.0667 22.032 31.024L22.12 31.016ZM26.1876 32.856C26.1876 32.9627 26.1582 33.0453 26.0996 33.104C26.0462 33.1573 25.9716 33.184 25.8756 33.184H23.3876C23.3929 33.5787 23.4942 33.8853 23.6916 34.104C23.8889 34.3173 24.1742 34.424 24.5476 34.424C24.9209 34.424 25.2676 34.3173 25.5876 34.104C25.6462 34.0667 25.7049 34.048 25.7636 34.048C25.8382 34.048 25.8996 34.0773 25.9476 34.136C25.9956 34.1947 26.0196 34.264 26.0196 34.344C26.0196 34.4667 25.9662 34.5707 25.8596 34.656C25.7156 34.7733 25.5156 34.8693 25.2596 34.944C25.0089 35.0187 24.7556 35.056 24.4996 35.056C24.1156 35.056 23.7796 34.9787 23.4916 34.824C23.2036 34.6693 22.9796 34.448 22.8196 34.16C22.6649 33.872 22.5876 33.5387 22.5876 33.16C22.5876 32.7387 22.6676 32.3653 22.8276 32.04C22.9929 31.7093 23.2222 31.4533 23.5156 31.272C23.8089 31.0907 24.1476 31 24.5316 31C25.0649 31 25.4729 31.16 25.7556 31.48C26.0436 31.7947 26.1876 32.2533 26.1876 32.856ZM24.5636 31.592C24.2382 31.592 23.9796 31.688 23.7876 31.88C23.5956 32.072 23.4729 32.352 23.4196 32.72H25.4836C25.4942 32.352 25.4169 32.072 25.2516 31.88C25.0916 31.688 24.8622 31.592 24.5636 31.592ZM31.4113 29.976C31.1286 29.9973 30.918 30.0827 30.7793 30.232C30.646 30.3813 30.566 30.6027 30.5393 30.896L30.5233 31.096H31.3153C31.422 31.096 31.502 31.1227 31.5553 31.176C31.614 31.2293 31.6433 31.3013 31.6433 31.392C31.6433 31.6107 31.5206 31.72 31.2753 31.72H30.4753L30.2433 34.656C30.238 34.784 30.1926 34.88 30.1073 34.944C30.0273 35.008 29.9313 35.04 29.8193 35.04C29.7073 35.04 29.614 35.008 29.5393 34.944C29.4646 34.88 29.43 34.784 29.4353 34.656L29.6673 31.72H29.1953C29.0886 31.72 29.006 31.6933 28.9473 31.64C28.8886 31.5867 28.8593 31.5147 28.8593 31.424C28.8593 31.3173 28.8913 31.2373 28.9553 31.184C29.0193 31.1253 29.1126 31.096 29.2353 31.096H29.7153L29.7233 30.992C29.8086 29.968 30.3606 29.424 31.3793 29.36L31.5473 29.352C31.83 29.336 31.9713 29.4293 31.9713 29.632C31.9713 29.7333 31.942 29.8107 31.8833 29.864C31.8246 29.9173 31.7393 29.9493 31.6273 29.96L31.4113 29.976ZM33.7466 35.056C33.368 35.056 33.0373 34.9787 32.7546 34.824C32.472 34.6693 32.2533 34.448 32.0986 34.16C31.944 33.872 31.8666 33.5387 31.8666 33.16C31.8666 32.7227 31.9466 32.3413 32.1066 32.016C32.272 31.6907 32.5013 31.44 32.7946 31.264C33.0933 31.088 33.4373 31 33.8266 31C34.2106 31 34.544 31.08 34.8266 31.24C35.1093 31.3947 35.328 31.616 35.4826 31.904C35.6373 32.1867 35.7146 32.52 35.7146 32.904C35.7146 33.3413 35.632 33.7227 35.4666 34.048C35.3066 34.368 35.0773 34.616 34.7786 34.792C34.4853 34.968 34.1413 35.056 33.7466 35.056ZM33.7546 34.416C34.1226 34.416 34.4053 34.2773 34.6026 34C34.8 33.7227 34.8986 33.3493 34.8986 32.88C34.8986 32.48 34.8053 32.176 34.6186 31.968C34.4373 31.7547 34.176 31.648 33.8346 31.648C33.4613 31.648 33.176 31.7867 32.9786 32.064C32.7813 32.3413 32.6826 32.7147 32.6826 33.184C32.6826 33.5893 32.7733 33.896 32.9546 34.104C33.1413 34.312 33.408 34.416 33.7546 34.416ZM38.9263 31.016C39.0276 31.0053 39.1076 31.0267 39.1663 31.08C39.2303 31.1333 39.2623 31.2107 39.2623 31.312C39.2623 31.5573 39.1289 31.6907 38.8623 31.712L38.6463 31.736C38.2783 31.7733 38.0036 31.88 37.8223 32.056C37.6463 32.232 37.5449 32.4907 37.5183 32.832L37.3663 34.656C37.3556 34.7893 37.3103 34.888 37.2303 34.952C37.1503 35.0107 37.0516 35.04 36.9343 35.04C36.8169 35.04 36.7209 35.008 36.6463 34.944C36.5769 34.88 36.5476 34.784 36.5583 34.656L36.8223 31.384C36.8276 31.2667 36.8729 31.176 36.9583 31.112C37.0436 31.048 37.1423 31.016 37.2543 31.016C37.3609 31.016 37.4463 31.048 37.5103 31.112C37.5743 31.1707 37.6036 31.2587 37.5983 31.376L37.5743 31.704C37.8409 31.2933 38.2623 31.0667 38.8383 31.024L38.9263 31.016ZM47.3013 29.312C47.4186 29.312 47.5093 29.3493 47.5733 29.424C47.6373 29.4933 47.664 29.584 47.6533 29.696L47.2533 34.672C47.248 34.784 47.208 34.8747 47.1333 34.944C47.064 35.008 46.976 35.04 46.8693 35.04C46.7573 35.04 46.6666 35.0053 46.5973 34.936C46.5333 34.8667 46.504 34.7733 46.5093 34.656L46.8053 30.944L45.0133 33.904C44.912 34.0747 44.7786 34.16 44.6133 34.16C44.448 34.16 44.3226 34.0693 44.2373 33.888L42.8933 30.968L42.6053 34.672C42.6 34.784 42.56 34.8747 42.4853 34.944C42.416 35.008 42.3253 35.04 42.2133 35.04C42.1013 35.04 42.0133 35.0053 41.9493 34.936C41.8853 34.8667 41.856 34.7733 41.8613 34.656L42.2533 29.728C42.264 29.6053 42.3066 29.5067 42.3813 29.432C42.4613 29.3573 42.56 29.32 42.6773 29.32C42.848 29.32 42.976 29.416 43.0613 29.608L44.6773 33.248L46.8853 29.584C46.9866 29.4027 47.1253 29.312 47.3013 29.312ZM48.9399 35.04C48.8225 35.04 48.7265 35.008 48.6519 34.944C48.5825 34.88 48.5532 34.784 48.5639 34.656L48.8279 31.392C48.8332 31.2693 48.8785 31.176 48.9639 31.112C49.0492 31.048 49.1479 31.016 49.2599 31.016C49.3772 31.016 49.4705 31.048 49.5399 31.112C49.6092 31.176 49.6412 31.2693 49.6359 31.392L49.3719 34.656C49.3612 34.7893 49.3159 34.888 49.2359 34.952C49.1559 35.0107 49.0572 35.04 48.9399 35.04ZM49.3639 30.232C49.2092 30.232 49.0865 30.1893 48.9959 30.104C48.9052 30.0187 48.8599 29.9067 48.8599 29.768C48.8599 29.6293 48.9052 29.52 48.9959 29.44C49.0865 29.3547 49.2092 29.312 49.3639 29.312C49.5132 29.312 49.6332 29.3547 49.7239 29.44C49.8199 29.52 49.8679 29.6293 49.8679 29.768C49.8679 29.9067 49.8225 30.0187 49.7319 30.104C49.6412 30.1893 49.5185 30.232 49.3639 30.232ZM52.3654 35.056C51.9867 35.056 51.656 34.9787 51.3734 34.824C51.0907 34.6693 50.872 34.4507 50.7174 34.168C50.5627 33.88 50.4854 33.5467 50.4854 33.168C50.4854 32.7307 50.568 32.3493 50.7334 32.024C50.8987 31.6987 51.136 31.448 51.4454 31.272C51.7547 31.0907 52.1174 31 52.5334 31C52.7894 31 53.0294 31.0347 53.2534 31.104C53.4827 31.1733 53.6694 31.264 53.8134 31.376C53.9147 31.4453 53.9654 31.544 53.9654 31.672C53.9654 31.7627 53.936 31.8427 53.8774 31.912C53.824 31.9813 53.7574 32.016 53.6774 32.016C53.6294 32.016 53.5787 32 53.5254 31.968C53.2107 31.7547 52.888 31.648 52.5574 31.648C52.1627 31.648 51.8587 31.7813 51.6454 32.048C51.432 32.3147 51.3254 32.688 51.3254 33.168C51.3254 33.5573 51.4214 33.8613 51.6134 34.08C51.8054 34.2987 52.08 34.408 52.4374 34.408C52.6134 34.408 52.7734 34.384 52.9174 34.336C53.0667 34.2827 53.2134 34.2027 53.3574 34.096C53.4214 34.064 53.4774 34.048 53.5254 34.048C53.6 34.048 53.6614 34.0773 53.7094 34.136C53.7574 34.1947 53.7814 34.264 53.7814 34.344C53.7814 34.472 53.7334 34.568 53.6374 34.632C53.488 34.7653 53.2987 34.8693 53.0694 34.944C52.8454 35.0187 52.6107 35.056 52.3654 35.056ZM56.8966 31.016C56.9979 31.0053 57.0779 31.0267 57.1366 31.08C57.2006 31.1333 57.2326 31.2107 57.2326 31.312C57.2326 31.5573 57.0992 31.6907 56.8326 31.712L56.6166 31.736C56.2486 31.7733 55.9739 31.88 55.7926 32.056C55.6166 32.232 55.5152 32.4907 55.4886 32.832L55.3366 34.656C55.3259 34.7893 55.2806 34.888 55.2006 34.952C55.1206 35.0107 55.0219 35.04 54.9046 35.04C54.7872 35.04 54.6912 35.008 54.6166 34.944C54.5472 34.88 54.5179 34.784 54.5286 34.656L54.7926 31.384C54.7979 31.2667 54.8432 31.176 54.9286 31.112C55.0139 31.048 55.1126 31.016 55.2246 31.016C55.3312 31.016 55.4166 31.048 55.4806 31.112C55.5446 31.1707 55.5739 31.2587 55.5686 31.376L55.5446 31.704C55.8112 31.2933 56.2326 31.0667 56.8086 31.024L56.8966 31.016ZM59.2441 35.056C58.8655 35.056 58.5348 34.9787 58.2521 34.824C57.9695 34.6693 57.7508 34.448 57.5961 34.16C57.4415 33.872 57.3641 33.5387 57.3641 33.16C57.3641 32.7227 57.4441 32.3413 57.6041 32.016C57.7695 31.6907 57.9988 31.44 58.2921 31.264C58.5908 31.088 58.9348 31 59.3241 31C59.7081 31 60.0415 31.08 60.3241 31.24C60.6068 31.3947 60.8255 31.616 60.9801 31.904C61.1348 32.1867 61.2121 32.52 61.2121 32.904C61.2121 33.3413 61.1295 33.7227 60.9641 34.048C60.8041 34.368 60.5748 34.616 60.2761 34.792C59.9828 34.968 59.6388 35.056 59.2441 35.056ZM59.2521 34.416C59.6201 34.416 59.9028 34.2773 60.1001 34C60.2975 33.7227 60.3961 33.3493 60.3961 32.88C60.3961 32.48 60.3028 32.176 60.1161 31.968C59.9348 31.7547 59.6735 31.648 59.3321 31.648C58.9588 31.648 58.6735 31.7867 58.4761 32.064C58.2788 32.3413 58.1801 32.7147 58.1801 33.184C58.1801 33.5893 58.2708 33.896 58.4521 34.104C58.6388 34.312 58.9055 34.416 59.2521 34.416ZM66.1091 31C67.0958 31 67.5891 31.4587 67.5891 32.376C67.5891 32.4773 67.5865 32.5547 67.5811 32.608L67.4211 34.672C67.4158 34.7893 67.3758 34.88 67.3011 34.944C67.2318 35.008 67.1385 35.04 67.0211 35.04C66.9038 35.04 66.8105 35.0053 66.7411 34.936C66.6718 34.8613 66.6425 34.768 66.6531 34.656L66.6691 34.384C66.5571 34.6027 66.4025 34.7707 66.2051 34.888C66.0078 35 65.7785 35.056 65.5171 35.056C65.1278 35.056 64.8051 34.952 64.5491 34.744C64.2985 34.5307 64.1731 34.2587 64.1731 33.928C64.1731 33.6293 64.2505 33.3947 64.4051 33.224C64.5598 33.048 64.8051 32.92 65.1411 32.84C65.4825 32.76 65.9385 32.72 66.5091 32.72H66.7971L66.8131 32.52C66.8345 32.216 66.7811 31.9947 66.6531 31.856C66.5251 31.712 66.3171 31.64 66.0291 31.64C65.6771 31.64 65.2878 31.7573 64.8611 31.992C64.8131 32.0187 64.7598 32.032 64.7011 32.032C64.6211 32.032 64.5545 32.0027 64.5011 31.944C64.4478 31.8853 64.4211 31.816 64.4211 31.736C64.4211 31.608 64.4878 31.5013 64.6211 31.416C64.8131 31.288 65.0398 31.1867 65.3011 31.112C65.5678 31.0373 65.8371 31 66.1091 31ZM65.7091 34.456C65.9865 34.456 66.2211 34.3573 66.4131 34.16C66.6051 33.9627 66.7145 33.7093 66.7411 33.4L66.7571 33.176H66.5331C66.1385 33.176 65.8291 33.1973 65.6051 33.24C65.3811 33.2827 65.2211 33.352 65.1251 33.448C65.0291 33.544 64.9811 33.6773 64.9811 33.848C64.9811 34.0347 65.0451 34.184 65.1731 34.296C65.3065 34.4027 65.4851 34.456 65.7091 34.456ZM70.9424 31C71.3797 31 71.7104 31.1147 71.9344 31.344C72.1637 31.5733 72.2784 31.912 72.2784 32.36C72.2784 32.4667 72.2757 32.5467 72.2704 32.6L72.1104 34.656C72.0997 34.7787 72.0544 34.8747 71.9744 34.944C71.8997 35.008 71.801 35.04 71.6784 35.04C71.5557 35.04 71.4597 35.008 71.3904 34.944C71.321 34.8747 71.2917 34.7787 71.3024 34.656L71.4624 32.64C71.4677 32.6027 71.4704 32.5467 71.4704 32.472C71.4704 31.928 71.209 31.656 70.6864 31.656C70.3557 31.656 70.0917 31.7547 69.8944 31.952C69.7024 32.1493 69.593 32.424 69.5664 32.776L69.4144 34.656C69.4037 34.7787 69.3584 34.8747 69.2784 34.944C69.2037 35.008 69.105 35.04 68.9824 35.04C68.8597 35.04 68.7637 35.008 68.6944 34.944C68.6304 34.8747 68.601 34.7787 68.6064 34.656L68.8704 31.384C68.8757 31.272 68.921 31.184 69.0064 31.12C69.0917 31.0507 69.193 31.016 69.3104 31.016C69.4224 31.016 69.5104 31.048 69.5744 31.112C69.6384 31.176 69.6677 31.264 69.6624 31.376L69.6384 31.656C69.7717 31.448 69.9504 31.288 70.1744 31.176C70.4037 31.0587 70.6597 31 70.9424 31ZM76.9037 29.312C77.0264 29.312 77.1224 29.3467 77.1917 29.416C77.2611 29.4853 77.2931 29.576 77.2877 29.688L76.8957 34.656C76.8904 34.7787 76.8477 34.8747 76.7677 34.944C76.6877 35.008 76.5891 35.04 76.4717 35.04C76.3544 35.04 76.2611 35.008 76.1917 34.944C76.1224 34.8747 76.0931 34.7787 76.1037 34.656L76.1197 34.408C75.9971 34.6107 75.8237 34.7707 75.5997 34.888C75.3757 35 75.1304 35.056 74.8637 35.056C74.5384 35.056 74.2477 34.9813 73.9917 34.832C73.7411 34.6773 73.5464 34.4587 73.4077 34.176C73.2691 33.8933 73.1997 33.5627 73.1997 33.184C73.1997 32.752 73.2771 32.3707 73.4317 32.04C73.5864 31.7093 73.8024 31.4533 74.0797 31.272C74.3624 31.0907 74.6851 31 75.0477 31C75.3357 31 75.5891 31.0613 75.8077 31.184C76.0264 31.3013 76.1971 31.472 76.3197 31.696L76.4797 29.672C76.4851 29.56 76.5277 29.472 76.6077 29.408C76.6877 29.344 76.7864 29.312 76.9037 29.312ZM75.0957 34.416C75.4531 34.416 75.7331 34.2827 75.9357 34.016C76.1384 33.744 76.2397 33.376 76.2397 32.912C76.2397 32.5013 76.1464 32.1893 75.9597 31.976C75.7731 31.7573 75.5064 31.648 75.1597 31.648C74.8024 31.648 74.5224 31.7813 74.3197 32.048C74.1171 32.3147 74.0157 32.68 74.0157 33.144C74.0157 33.5493 74.1091 33.864 74.2957 34.088C74.4877 34.3067 74.7544 34.416 75.0957 34.416ZM85.0437 29.32C85.1557 29.32 85.2464 29.36 85.3157 29.44C85.385 29.5147 85.417 29.6107 85.4117 29.728L85.0197 34.64C85.009 34.7627 84.969 34.8613 84.8997 34.936C84.8304 35.0053 84.737 35.04 84.6197 35.04C84.4704 35.04 84.3557 34.984 84.2757 34.872L81.4757 30.744L81.1637 34.648C81.153 34.7653 81.1104 34.8613 81.0357 34.936C80.961 35.0053 80.8677 35.04 80.7557 35.04C80.6384 35.04 80.545 35.0027 80.4757 34.928C80.4117 34.848 80.3824 34.7467 80.3877 34.624L80.7797 29.728C80.785 29.6053 80.825 29.5067 80.8997 29.432C80.9797 29.3573 81.0784 29.32 81.1957 29.32C81.3397 29.32 81.449 29.376 81.5237 29.488L84.3237 33.6L84.6277 29.712C84.6384 29.5893 84.681 29.4933 84.7557 29.424C84.8304 29.3547 84.9264 29.32 85.0437 29.32ZM88.181 31C89.1677 31 89.661 31.4587 89.661 32.376C89.661 32.4773 89.6583 32.5547 89.653 32.608L89.493 34.672C89.4877 34.7893 89.4477 34.88 89.373 34.944C89.3037 35.008 89.2103 35.04 89.093 35.04C88.9757 35.04 88.8823 35.0053 88.813 34.936C88.7437 34.8613 88.7143 34.768 88.725 34.656L88.741 34.384C88.629 34.6027 88.4743 34.7707 88.277 34.888C88.0797 35 87.8503 35.056 87.589 35.056C87.1997 35.056 86.877 34.952 86.621 34.744C86.3703 34.5307 86.245 34.2587 86.245 33.928C86.245 33.6293 86.3223 33.3947 86.477 33.224C86.6317 33.048 86.877 32.92 87.213 32.84C87.5543 32.76 88.0103 32.72 88.581 32.72H88.869L88.885 32.52C88.9063 32.216 88.853 31.9947 88.725 31.856C88.597 31.712 88.389 31.64 88.101 31.64C87.749 31.64 87.3597 31.7573 86.933 31.992C86.885 32.0187 86.8317 32.032 86.773 32.032C86.693 32.032 86.6263 32.0027 86.573 31.944C86.5197 31.8853 86.493 31.816 86.493 31.736C86.493 31.608 86.5597 31.5013 86.693 31.416C86.885 31.288 87.1117 31.1867 87.373 31.112C87.6397 31.0373 87.909 31 88.181 31ZM87.781 34.456C88.0583 34.456 88.293 34.3573 88.485 34.16C88.677 33.9627 88.7863 33.7093 88.813 33.4L88.829 33.176H88.605C88.2103 33.176 87.901 33.1973 87.677 33.24C87.453 33.2827 87.293 33.352 87.197 33.448C87.101 33.544 87.053 33.6773 87.053 33.848C87.053 34.0347 87.117 34.184 87.245 34.296C87.3783 34.4027 87.557 34.456 87.781 34.456ZM93.0142 31C93.4516 31 93.7822 31.1147 94.0062 31.344C94.2356 31.5733 94.3502 31.912 94.3502 32.36C94.3502 32.4667 94.3476 32.5467 94.3422 32.6L94.1822 34.656C94.1716 34.7787 94.1262 34.8747 94.0462 34.944C93.9716 35.008 93.8729 35.04 93.7502 35.04C93.6276 35.04 93.5316 35.008 93.4622 34.944C93.3929 34.8747 93.3636 34.7787 93.3742 34.656L93.5342 32.64C93.5396 32.6027 93.5422 32.5467 93.5422 32.472C93.5422 31.928 93.2809 31.656 92.7582 31.656C92.4276 31.656 92.1636 31.7547 91.9662 31.952C91.7742 32.1493 91.6649 32.424 91.6382 32.776L91.4862 34.656C91.4756 34.7787 91.4302 34.8747 91.3502 34.944C91.2756 35.008 91.1769 35.04 91.0542 35.04C90.9316 35.04 90.8356 35.008 90.7662 34.944C90.7022 34.8747 90.6729 34.7787 90.6782 34.656L90.9422 31.384C90.9476 31.272 90.9929 31.184 91.0782 31.12C91.1636 31.0507 91.2649 31.016 91.3822 31.016C91.4942 31.016 91.5822 31.048 91.6462 31.112C91.7102 31.176 91.7396 31.264 91.7342 31.376L91.7102 31.656C91.8436 31.448 92.0222 31.288 92.2462 31.176C92.4756 31.0587 92.7316 31 93.0142 31ZM97.1516 35.056C96.773 35.056 96.4423 34.9787 96.1596 34.824C95.877 34.6693 95.6583 34.448 95.5036 34.16C95.349 33.872 95.2716 33.5387 95.2716 33.16C95.2716 32.7227 95.3516 32.3413 95.5116 32.016C95.677 31.6907 95.9063 31.44 96.1996 31.264C96.4983 31.088 96.8423 31 97.2316 31C97.6156 31 97.949 31.08 98.2316 31.24C98.5143 31.3947 98.733 31.616 98.8876 31.904C99.0423 32.1867 99.1196 32.52 99.1196 32.904C99.1196 33.3413 99.037 33.7227 98.8716 34.048C98.7116 34.368 98.4823 34.616 98.1836 34.792C97.8903 34.968 97.5463 35.056 97.1516 35.056ZM97.1596 34.416C97.5276 34.416 97.8103 34.2773 98.0076 34C98.205 33.7227 98.3036 33.3493 98.3036 32.88C98.3036 32.48 98.2103 32.176 98.0236 31.968C97.8423 31.7547 97.581 31.648 97.2396 31.648C96.8663 31.648 96.581 31.7867 96.3836 32.064C96.1863 32.3413 96.0876 32.7147 96.0876 33.184C96.0876 33.5893 96.1783 33.896 96.3596 34.104C96.5463 34.312 96.813 34.416 97.1596 34.416ZM101.092 33.552C101.086 33.584 101.084 33.632 101.084 33.696C101.084 33.936 101.137 34.12 101.244 34.248C101.356 34.3707 101.51 34.432 101.708 34.432C101.772 34.432 101.836 34.4293 101.9 34.424C101.964 34.4133 102.014 34.408 102.052 34.408C102.116 34.408 102.166 34.4347 102.204 34.488C102.241 34.536 102.26 34.6053 102.26 34.696C102.26 34.8293 102.206 34.9227 102.1 34.976C101.998 35.0293 101.817 35.056 101.556 35.056C101.15 35.056 100.836 34.944 100.612 34.72C100.388 34.496 100.276 34.1813 100.276 33.776C100.276 33.6907 100.278 33.624 100.284 33.576L100.428 31.72H99.9556C99.849 31.72 99.7663 31.6933 99.7076 31.64C99.649 31.5867 99.6196 31.512 99.6196 31.416C99.6196 31.3147 99.6516 31.2373 99.7156 31.184C99.7796 31.1253 99.873 31.096 99.9956 31.096H100.476L100.54 30.264C100.55 30.152 100.596 30.0613 100.676 29.992C100.756 29.9227 100.854 29.888 100.972 29.888C101.094 29.888 101.19 29.9227 101.26 29.992C101.329 30.0613 101.358 30.1547 101.348 30.272L101.284 31.096H102.076C102.177 31.096 102.257 31.1227 102.316 31.176C102.374 31.2293 102.404 31.3013 102.404 31.392C102.404 31.6107 102.281 31.72 102.036 31.72H101.236L101.092 33.552ZM106.352 32.856C106.352 32.9627 106.323 33.0453 106.264 33.104C106.211 33.1573 106.136 33.184 106.04 33.184H103.552C103.557 33.5787 103.659 33.8853 103.856 34.104C104.053 34.3173 104.339 34.424 104.712 34.424C105.085 34.424 105.432 34.3173 105.752 34.104C105.811 34.0667 105.869 34.048 105.928 34.048C106.003 34.048 106.064 34.0773 106.112 34.136C106.16 34.1947 106.184 34.264 106.184 34.344C106.184 34.4667 106.131 34.5707 106.024 34.656C105.88 34.7733 105.68 34.8693 105.424 34.944C105.173 35.0187 104.92 35.056 104.664 35.056C104.28 35.056 103.944 34.9787 103.656 34.824C103.368 34.6693 103.144 34.448 102.984 34.16C102.829 33.872 102.752 33.5387 102.752 33.16C102.752 32.7387 102.832 32.3653 102.992 32.04C103.157 31.7093 103.387 31.4533 103.68 31.272C103.973 31.0907 104.312 31 104.696 31C105.229 31 105.637 31.16 105.92 31.48C106.208 31.7947 106.352 32.2533 106.352 32.856ZM104.728 31.592C104.403 31.592 104.144 31.688 103.952 31.88C103.76 32.072 103.637 32.352 103.584 32.72H105.648C105.659 32.352 105.581 32.072 105.416 31.88C105.256 31.688 105.027 31.592 104.728 31.592ZM108.946 35.056C108.568 35.056 108.237 34.9787 107.954 34.824C107.672 34.6693 107.453 34.4507 107.298 34.168C107.144 33.88 107.066 33.5467 107.066 33.168C107.066 32.7307 107.149 32.3493 107.314 32.024C107.48 31.6987 107.717 31.448 108.026 31.272C108.336 31.0907 108.698 31 109.114 31C109.37 31 109.61 31.0347 109.834 31.104C110.064 31.1733 110.25 31.264 110.394 31.376C110.496 31.4453 110.546 31.544 110.546 31.672C110.546 31.7627 110.517 31.8427 110.458 31.912C110.405 31.9813 110.338 32.016 110.258 32.016C110.21 32.016 110.16 32 110.106 31.968C109.792 31.7547 109.469 31.648 109.138 31.648C108.744 31.648 108.44 31.7813 108.226 32.048C108.013 32.3147 107.906 32.688 107.906 33.168C107.906 33.5573 108.002 33.8613 108.194 34.08C108.386 34.2987 108.661 34.408 109.018 34.408C109.194 34.408 109.354 34.384 109.498 34.336C109.648 34.2827 109.794 34.2027 109.938 34.096C110.002 34.064 110.058 34.048 110.106 34.048C110.181 34.048 110.242 34.0773 110.29 34.136C110.338 34.1947 110.362 34.264 110.362 34.344C110.362 34.472 110.314 34.568 110.218 34.632C110.069 34.7653 109.88 34.8693 109.65 34.944C109.426 35.0187 109.192 35.056 108.946 35.056ZM113.445 31C113.883 31 114.213 31.1147 114.437 31.344C114.667 31.5733 114.781 31.912 114.781 32.36C114.781 32.4667 114.779 32.5467 114.773 32.6L114.613 34.656C114.603 34.7787 114.557 34.8747 114.477 34.944C114.403 35.008 114.304 35.04 114.181 35.04C114.059 35.04 113.963 35.008 113.893 34.944C113.824 34.8747 113.795 34.7787 113.805 34.656L113.965 32.64C113.971 32.6027 113.973 32.5467 113.973 32.472C113.973 31.928 113.712 31.656 113.189 31.656C112.859 31.656 112.595 31.7547 112.397 31.952C112.205 32.1493 112.096 32.424 112.069 32.776L111.917 34.656C111.912 34.7787 111.869 34.8747 111.789 34.944C111.709 35.008 111.608 35.04 111.485 35.04C111.363 35.04 111.267 35.008 111.197 34.944C111.128 34.8747 111.099 34.7787 111.109 34.656L111.509 29.688C111.515 29.576 111.557 29.4853 111.637 29.416C111.723 29.3467 111.824 29.312 111.941 29.312C112.059 29.312 112.152 29.344 112.221 29.408C112.291 29.472 112.323 29.56 112.317 29.672L112.157 31.632C112.291 31.4293 112.469 31.2747 112.693 31.168C112.917 31.056 113.168 31 113.445 31ZM118.135 31C118.572 31 118.903 31.1147 119.127 31.344C119.356 31.5733 119.471 31.912 119.471 32.36C119.471 32.4667 119.468 32.5467 119.463 32.6L119.303 34.656C119.292 34.7787 119.247 34.8747 119.167 34.944C119.092 35.008 118.994 35.04 118.871 35.04C118.748 35.04 118.652 35.008 118.583 34.944C118.514 34.8747 118.484 34.7787 118.495 34.656L118.655 32.64C118.66 32.6027 118.663 32.5467 118.663 32.472C118.663 31.928 118.402 31.656 117.879 31.656C117.548 31.656 117.284 31.7547 117.087 31.952C116.895 32.1493 116.786 32.424 116.759 32.776L116.607 34.656C116.596 34.7787 116.551 34.8747 116.471 34.944C116.396 35.008 116.298 35.04 116.175 35.04C116.052 35.04 115.956 35.008 115.887 34.944C115.823 34.8747 115.794 34.7787 115.799 34.656L116.063 31.384C116.068 31.272 116.114 31.184 116.199 31.12C116.284 31.0507 116.386 31.016 116.503 31.016C116.615 31.016 116.703 31.048 116.767 31.112C116.831 31.176 116.86 31.264 116.855 31.376L116.831 31.656C116.964 31.448 117.143 31.288 117.367 31.176C117.596 31.0587 117.852 31 118.135 31ZM122.272 35.056C121.894 35.056 121.563 34.9787 121.28 34.824C120.998 34.6693 120.779 34.448 120.624 34.16C120.47 33.872 120.392 33.5387 120.392 33.16C120.392 32.7227 120.472 32.3413 120.632 32.016C120.798 31.6907 121.027 31.44 121.32 31.264C121.619 31.088 121.963 31 122.352 31C122.736 31 123.07 31.08 123.352 31.24C123.635 31.3947 123.854 31.616 124.008 31.904C124.163 32.1867 124.24 32.52 124.24 32.904C124.24 33.3413 124.158 33.7227 123.992 34.048C123.832 34.368 123.603 34.616 123.304 34.792C123.011 34.968 122.667 35.056 122.272 35.056ZM122.28 34.416C122.648 34.416 122.931 34.2773 123.128 34C123.326 33.7227 123.424 33.3493 123.424 32.88C123.424 32.48 123.331 32.176 123.144 31.968C122.963 31.7547 122.702 31.648 122.36 31.648C121.987 31.648 121.702 31.7867 121.504 32.064C121.307 32.3413 121.208 32.7147 121.208 33.184C121.208 33.5893 121.299 33.896 121.48 34.104C121.667 34.312 121.934 34.416 122.28 34.416ZM125.46 35.04C125.343 35.04 125.247 35.008 125.172 34.944C125.103 34.88 125.073 34.784 125.084 34.656L125.484 29.696C125.489 29.568 125.535 29.472 125.62 29.408C125.705 29.344 125.804 29.312 125.916 29.312C126.028 29.312 126.119 29.344 126.188 29.408C126.263 29.472 126.297 29.568 126.292 29.696L125.892 34.656C125.881 34.7893 125.836 34.888 125.756 34.952C125.676 35.0107 125.577 35.04 125.46 35.04ZM128.885 35.056C128.507 35.056 128.176 34.9787 127.893 34.824C127.611 34.6693 127.392 34.448 127.237 34.16C127.083 33.872 127.005 33.5387 127.005 33.16C127.005 32.7227 127.085 32.3413 127.245 32.016C127.411 31.6907 127.64 31.44 127.933 31.264C128.232 31.088 128.576 31 128.965 31C129.349 31 129.683 31.08 129.965 31.24C130.248 31.3947 130.467 31.616 130.621 31.904C130.776 32.1867 130.853 32.52 130.853 32.904C130.853 33.3413 130.771 33.7227 130.605 34.048C130.445 34.368 130.216 34.616 129.917 34.792C129.624 34.968 129.28 35.056 128.885 35.056ZM128.893 34.416C129.261 34.416 129.544 34.2773 129.741 34C129.939 33.7227 130.037 33.3493 130.037 32.88C130.037 32.48 129.944 32.176 129.757 31.968C129.576 31.7547 129.315 31.648 128.973 31.648C128.6 31.648 128.315 31.7867 128.117 32.064C127.92 32.3413 127.821 32.7147 127.821 33.184C127.821 33.5893 127.912 33.896 128.093 34.104C128.28 34.312 128.547 34.416 128.893 34.416ZM135.225 31.016C135.342 31.016 135.433 31.0507 135.497 31.12C135.566 31.1893 135.598 31.2853 135.593 31.408L135.329 34.688C135.286 35.2853 135.094 35.736 134.753 36.04C134.417 36.344 133.94 36.496 133.321 36.496C133.028 36.496 132.75 36.4613 132.489 36.392C132.228 36.3227 132.004 36.2267 131.817 36.104C131.689 36.0187 131.625 35.9147 131.625 35.792C131.625 35.7013 131.654 35.624 131.713 35.56C131.772 35.496 131.844 35.464 131.929 35.464C131.977 35.464 132.02 35.4747 132.057 35.496C132.462 35.7413 132.892 35.864 133.345 35.864C134.076 35.864 134.47 35.488 134.529 34.736L134.569 34.256C134.441 34.4533 134.265 34.608 134.041 34.72C133.817 34.8267 133.569 34.88 133.297 34.88C132.961 34.88 132.665 34.808 132.409 34.664C132.153 34.5147 131.956 34.304 131.817 34.032C131.678 33.76 131.609 33.4453 131.609 33.088C131.609 32.6827 131.686 32.3227 131.841 32.008C131.996 31.688 132.212 31.44 132.489 31.264C132.772 31.088 133.097 31 133.465 31C133.769 31 134.033 31.064 134.257 31.192C134.481 31.3147 134.652 31.4933 134.769 31.728L134.793 31.4C134.804 31.2773 134.849 31.184 134.929 31.12C135.009 31.0507 135.108 31.016 135.225 31.016ZM133.521 34.24C133.878 34.24 134.158 34.1147 134.361 33.864C134.569 33.6133 134.673 33.2693 134.673 32.832C134.673 32.448 134.577 32.1547 134.385 31.952C134.198 31.7493 133.932 31.648 133.585 31.648C133.222 31.648 132.937 31.776 132.729 32.032C132.526 32.2827 132.425 32.6293 132.425 33.072C132.425 33.4453 132.518 33.7333 132.705 33.936C132.897 34.1387 133.169 34.24 133.521 34.24ZM139.535 31.272C139.609 31.1227 139.721 31.048 139.871 31.048C139.972 31.048 140.06 31.08 140.135 31.144C140.209 31.208 140.247 31.288 140.247 31.384C140.247 31.4373 140.231 31.4933 140.199 31.552L137.727 36.256C137.684 36.3307 137.631 36.3867 137.567 36.424C137.508 36.4667 137.444 36.488 137.375 36.488C137.284 36.488 137.204 36.4587 137.135 36.4C137.065 36.3413 137.031 36.2667 137.031 36.176C137.031 36.1173 137.047 36.056 137.079 35.992L137.631 34.912L136.399 31.536C136.383 31.4933 136.375 31.4533 136.375 31.416C136.375 31.3147 136.417 31.2293 136.503 31.16C136.593 31.0853 136.692 31.048 136.799 31.048C136.873 31.048 136.94 31.0693 136.999 31.112C137.057 31.1493 137.1 31.208 137.127 31.288L138.103 34.096L139.535 31.272Z" fill="#F8F8F8"/>
</svg>
