<svg width="30" height="20" viewBox="0 0 30 20" fill="none" xmlns="http://www.w3.org/2000/svg">
<path d="M27.3633 0H2.63672C1.1799 0 0 1.12567 0 2.5V17.5C0 18.8825 1.18857 20 2.63672 20H27.3633C28.8079 20 30 18.8872 30 17.5V2.5C30 1.12811 28.8248 0 27.3633 0ZM26.994 1.66667C26.4553 2.17472 17.1846 10.9185 16.8645 11.2204C16.3664 11.6926 15.7043 11.9526 15 11.9526C14.2957 11.9526 13.6336 11.6926 13.1339 11.2188C12.9186 11.0158 3.75018 2.36856 3.00598 1.66667H26.994ZM1.75781 17.1608V2.84028L9.35379 10.0044L1.75781 17.1608ZM3.00709 18.3333L10.6001 11.1798L11.8926 12.3989C12.7226 13.1859 13.8262 13.6193 15 13.6193C16.1738 13.6193 17.2774 13.1859 18.1058 12.4004L19.3999 11.1798L26.9929 18.3333H3.00709ZM28.2422 17.1608L20.6462 10.0044L28.2422 2.84028V17.1608Z" fill="#F8F8F8"/>
</svg>
