<svg width="16" height="15" viewBox="0 0 16 15" fill="none" xmlns="http://www.w3.org/2000/svg">
<g clip-path="url(#clip0_323:756)">
<path d="M8 0C4.691 0 2 2.50022 2 5.57462C2 9.43876 7.416 14.5154 7.646 14.73C7.744 14.8201 7.872 14.8657 8 14.8657C8.128 14.8657 8.256 14.8201 8.354 14.73C8.584 14.5154 14 9.43876 14 5.57462C14 2.50022 11.309 0 8 0ZM8 13.7294C6.806 12.542 3 8.52638 3 5.57462C3 3.01308 5.243 0.929104 8 0.929104C10.757 0.929104 13 3.01308 13 5.57462C13 8.5236 9.194 12.542 8 13.7294Z" fill="#F8F8F8"/>
<path d="M8 2.78711C6.346 2.78711 5 4.03768 5 5.57442C5 7.11116 6.346 8.36173 8 8.36173C9.654 8.36173 11 7.11116 11 5.57442C11 4.03768 9.654 2.78711 8 2.78711ZM8 7.43263C6.897 7.43263 6 6.59922 6 5.57442C6 4.54962 6.897 3.71621 8 3.71621C9.103 3.71621 10 4.54962 10 5.57442C10 6.59922 9.103 7.43263 8 7.43263Z" fill="#F8F8F8"/>
</g>
<defs>
<clipPath id="clip0_323:756">
<rect width="16" height="14.8657" fill="white"/>
</clipPath>
</defs>
</svg>
